solid OpenSCAD_Model
  facet normal 0 0 -1
    outer loop
      vertex -2 0 4
      vertex -1.90211 0.618034 4
      vertex -1.90211 -0.618034 4
    endloop
  endfacet
  facet normal 0 0 -1
    outer loop
      vertex -1.90211 -0.618034 4
      vertex -1.90211 0.618034 4
      vertex -1.61803 1.17557 4
    endloop
  endfacet
  facet normal 0 0 -1
    outer loop
      vertex -1.90211 -0.618034 4
      vertex -1.61803 1.17557 4
      vertex -1.17557 1.61803 4
    endloop
  endfacet
  facet normal 0 0 -1
    outer loop
      vertex -1.21352 0.881678 4
      vertex -1.17557 1.61803 4
      vertex -0.618034 1.90211 4
    endloop
  endfacet
  facet normal 0 0 -1
    outer loop
      vertex -0.463525 1.42658 4
      vertex -0.618034 1.90211 4
      vertex 0 2 4
    endloop
  endfacet
  facet normal 0 0 -1
    outer loop
      vertex 0 1.5 4
      vertex 0 2 4
      vertex 0.618034 1.90211 4
    endloop
  endfacet
  facet normal 0 0 -1
    outer loop
      vertex 0.463525 1.42658 4
      vertex 0.618034 1.90211 4
      vertex 1.17557 1.61803 4
    endloop
  endfacet
  facet normal 0 0 -1
    outer loop
      vertex 0.881678 1.21352 4
      vertex 1.17557 1.61803 4
      vertex 1.61803 1.17557 4
    endloop
  endfacet
  facet normal 0 0 -1
    outer loop
      vertex 1.21352 0.881678 4
      vertex 1.61803 1.17557 4
      vertex 1.90211 0.618034 4
    endloop
  endfacet
  facet normal 0 0 -1
    outer loop
      vertex 1.5 0 4
      vertex 1.90211 0.618034 4
      vertex 2 0 4
    endloop
  endfacet
  facet normal 0 0 -1
    outer loop
      vertex 1.42658 -0.463525 4
      vertex 2 0 4
      vertex 1.90211 -0.618034 4
    endloop
  endfacet
  facet normal 0 0 -1
    outer loop
      vertex 1.21352 -0.881678 4
      vertex 1.90211 -0.618034 4
      vertex 1.61803 -1.17557 4
    endloop
  endfacet
  facet normal 0 0 -1
    outer loop
      vertex 0.881678 -1.21352 4
      vertex 1.61803 -1.17557 4
      vertex 1.17557 -1.61803 4
    endloop
  endfacet
  facet normal 0 0 -1
    outer loop
      vertex 0 -1.5 4
      vertex 1.17557 -1.61803 4
      vertex 0.618034 -1.90211 4
    endloop
  endfacet
  facet normal 0 0 -1
    outer loop
      vertex -0.463525 -1.42658 4
      vertex 0.618034 -1.90211 4
      vertex 0 -2 4
    endloop
  endfacet
  facet normal 0 0 -1
    outer loop
      vertex -1.90211 -0.618034 4
      vertex 0 -2 4
      vertex -0.618034 -1.90211 4
    endloop
  endfacet
  facet normal 0 0 -1
    outer loop
      vertex -1.90211 -0.618034 4
      vertex -0.618034 -1.90211 4
      vertex -1.17557 -1.61803 4
    endloop
  endfacet
  facet normal 0 0 -1
    outer loop
      vertex -1.90211 -0.618034 4
      vertex -1.17557 -1.61803 4
      vertex -1.61803 -1.17557 4
    endloop
  endfacet
  facet normal 0 0 -1
    outer loop
      vertex -1.42658 -0.463525 4
      vertex -1.90211 -0.618034 4
      vertex -1.5 0 4
    endloop
  endfacet
  facet normal 0 0 -1
    outer loop
      vertex 1.42658 -0.463525 4
      vertex 1.90211 -0.618034 4
      vertex 1.21352 -0.881678 4
    endloop
  endfacet
  facet normal 0 0 -1
    outer loop
      vertex -1.21352 -0.881678 4
      vertex -1.90211 -0.618034 4
      vertex -1.42658 -0.463525 4
    endloop
  endfacet
  facet normal 0 0 -1
    outer loop
      vertex -0.881678 -1.21352 4
      vertex -1.90211 -0.618034 4
      vertex -1.21352 -0.881678 4
    endloop
  endfacet
  facet normal 0 0 -1
    outer loop
      vertex 0 -1.5 4
      vertex 0.618034 -1.90211 4
      vertex -0.463525 -1.42658 4
    endloop
  endfacet
  facet normal 0 0 -1
    outer loop
      vertex -1.90211 -0.618034 4
      vertex -0.881678 -1.21352 4
      vertex 0 -2 4
    endloop
  endfacet
  facet normal 0 0 -1
    outer loop
      vertex -0.881678 -1.21352 4
      vertex -0.463525 -1.42658 4
      vertex 0 -2 4
    endloop
  endfacet
  facet normal 0 0 -1
    outer loop
      vertex 0.463525 -1.42658 4
      vertex 1.17557 -1.61803 4
      vertex 0 -1.5 4
    endloop
  endfacet
  facet normal 0 0 -1
    outer loop
      vertex 0.881678 -1.21352 4
      vertex 1.17557 -1.61803 4
      vertex 0.463525 -1.42658 4
    endloop
  endfacet
  facet normal 0 0 -1
    outer loop
      vertex 1.42658 0.463525 4
      vertex 1.90211 0.618034 4
      vertex 1.5 0 4
    endloop
  endfacet
  facet normal 0 0 -1
    outer loop
      vertex 0.881678 1.21352 4
      vertex 1.61803 1.17557 4
      vertex 1.21352 0.881678 4
    endloop
  endfacet
  facet normal 0 0 -1
    outer loop
      vertex 1.21352 0.881678 4
      vertex 1.90211 0.618034 4
      vertex 1.42658 0.463525 4
    endloop
  endfacet
  facet normal 0 0 -1
    outer loop
      vertex 1.5 0 4
      vertex 2 0 4
      vertex 1.42658 -0.463525 4
    endloop
  endfacet
  facet normal 0 0 -1
    outer loop
      vertex -0.881678 1.21352 4
      vertex -0.618034 1.90211 4
      vertex -0.463525 1.42658 4
    endloop
  endfacet
  facet normal 0 0 -1
    outer loop
      vertex -1.21352 0.881678 4
      vertex -0.618034 1.90211 4
      vertex -0.881678 1.21352 4
    endloop
  endfacet
  facet normal 0 0 -1
    outer loop
      vertex -1.42658 0.463525 4
      vertex -1.17557 1.61803 4
      vertex -1.21352 0.881678 4
    endloop
  endfacet
  facet normal 0 0 -1
    outer loop
      vertex -1.90211 -0.618034 4
      vertex -1.17557 1.61803 4
      vertex -1.42658 0.463525 4
    endloop
  endfacet
  facet normal 0 0 -1
    outer loop
      vertex -0.463525 1.42658 4
      vertex 0 2 4
      vertex 0 1.5 4
    endloop
  endfacet
  facet normal 0 0 -1
    outer loop
      vertex -1.5 0 4
      vertex -1.90211 -0.618034 4
      vertex -1.42658 0.463525 4
    endloop
  endfacet
  facet normal 0 0 -1
    outer loop
      vertex 0 1.5 4
      vertex 0.618034 1.90211 4
      vertex 0.463525 1.42658 4
    endloop
  endfacet
  facet normal 0 0 -1
    outer loop
      vertex 0.463525 1.42658 4
      vertex 1.17557 1.61803 4
      vertex 0.881678 1.21352 4
    endloop
  endfacet
  facet normal 0 0 -1
    outer loop
      vertex 1.21352 -0.881678 4
      vertex 1.61803 -1.17557 4
      vertex 0.881678 -1.21352 4
    endloop
  endfacet
  facet normal -0.987688 0.156435 0
    outer loop
      vertex -2 0 4
      vertex -2 0 5
      vertex -1.90211 0.618034 4
    endloop
  endfacet
  facet normal -0.987688 0.156435 0
    outer loop
      vertex -1.90211 0.618034 4
      vertex -2 0 5
      vertex -1.90211 0.618034 5
    endloop
  endfacet
  facet normal -0.987688 -0.156435 0
    outer loop
      vertex -2 0 4
      vertex -1.90211 -0.618034 4
      vertex -2 0 5
    endloop
  endfacet
  facet normal -0.987688 -0.156435 0
    outer loop
      vertex -2 0 5
      vertex -1.90211 -0.618034 4
      vertex -1.90211 -0.618034 5
    endloop
  endfacet
  facet normal -0.891007 -0.45399 0
    outer loop
      vertex -1.90211 -0.618034 4
      vertex -1.61803 -1.17557 4
      vertex -1.90211 -0.618034 5
    endloop
  endfacet
  facet normal -0.891007 -0.45399 0
    outer loop
      vertex -1.90211 -0.618034 5
      vertex -1.61803 -1.17557 4
      vertex -1.61803 -1.17557 5
    endloop
  endfacet
  facet normal -0.707107 -0.707107 0
    outer loop
      vertex -1.61803 -1.17557 5
      vertex -1.61803 -1.17557 4
      vertex -1.17557 -1.61803 4
    endloop
  endfacet
  facet normal -0.707107 -0.707107 0
    outer loop
      vertex -1.17557 -1.61803 5
      vertex -1.61803 -1.17557 5
      vertex -1.17557 -1.61803 4
    endloop
  endfacet
  facet normal -0.45399 -0.891007 0
    outer loop
      vertex -1.17557 -1.61803 5
      vertex -1.17557 -1.61803 4
      vertex -0.618034 -1.90211 4
    endloop
  endfacet
  facet normal -0.45399 -0.891007 0
    outer loop
      vertex -0.618034 -1.90211 5
      vertex -1.17557 -1.61803 5
      vertex -0.618034 -1.90211 4
    endloop
  endfacet
  facet normal -0.156435 -0.987688 0
    outer loop
      vertex -0.618034 -1.90211 5
      vertex -0.618034 -1.90211 4
      vertex 0 -2 4
    endloop
  endfacet
  facet normal -0.156435 -0.987688 0
    outer loop
      vertex 0 -2 5
      vertex -0.618034 -1.90211 5
      vertex 0 -2 4
    endloop
  endfacet
  facet normal 0.156435 -0.987688 0
    outer loop
      vertex 0 -2 5
      vertex 0 -2 4
      vertex 0.618034 -1.90211 4
    endloop
  endfacet
  facet normal 0.156435 -0.987688 0
    outer loop
      vertex 0.618034 -1.90211 5
      vertex 0 -2 5
      vertex 0.618034 -1.90211 4
    endloop
  endfacet
  facet normal 0.45399 -0.891007 0
    outer loop
      vertex 0.618034 -1.90211 5
      vertex 0.618034 -1.90211 4
      vertex 1.17557 -1.61803 4
    endloop
  endfacet
  facet normal 0.45399 -0.891007 0
    outer loop
      vertex 1.17557 -1.61803 5
      vertex 0.618034 -1.90211 5
      vertex 1.17557 -1.61803 4
    endloop
  endfacet
  facet normal 0.707107 -0.707107 0
    outer loop
      vertex 1.17557 -1.61803 5
      vertex 1.17557 -1.61803 4
      vertex 1.61803 -1.17557 4
    endloop
  endfacet
  facet normal 0.707107 -0.707107 0
    outer loop
      vertex 1.61803 -1.17557 5
      vertex 1.17557 -1.61803 5
      vertex 1.61803 -1.17557 4
    endloop
  endfacet
  facet normal 0.891007 -0.45399 0
    outer loop
      vertex 1.61803 -1.17557 5
      vertex 1.61803 -1.17557 4
      vertex 1.90211 -0.618034 4
    endloop
  endfacet
  facet normal 0.891007 -0.45399 0
    outer loop
      vertex 1.90211 -0.618034 5
      vertex 1.61803 -1.17557 5
      vertex 1.90211 -0.618034 4
    endloop
  endfacet
  facet normal 0.987688 -0.156435 0
    outer loop
      vertex 1.90211 -0.618034 5
      vertex 1.90211 -0.618034 4
      vertex 2 0 4
    endloop
  endfacet
  facet normal 0.987688 -0.156435 0
    outer loop
      vertex 2 0 5
      vertex 1.90211 -0.618034 5
      vertex 2 0 4
    endloop
  endfacet
  facet normal 0.987688 0.156435 0
    outer loop
      vertex 2 0 4
      vertex 1.90211 0.618034 4
      vertex 1.90211 0.618034 5
    endloop
  endfacet
  facet normal 0.987688 0.156435 0
    outer loop
      vertex 2 0 5
      vertex 2 0 4
      vertex 1.90211 0.618034 5
    endloop
  endfacet
  facet normal 0.891007 0.45399 0
    outer loop
      vertex 1.90211 0.618034 4
      vertex 1.61803 1.17557 4
      vertex 1.61803 1.17557 5
    endloop
  endfacet
  facet normal 0.891007 0.45399 0
    outer loop
      vertex 1.90211 0.618034 5
      vertex 1.90211 0.618034 4
      vertex 1.61803 1.17557 5
    endloop
  endfacet
  facet normal 0.707107 0.707107 0
    outer loop
      vertex 1.17557 1.61803 4
      vertex 1.17557 1.61803 5
      vertex 1.61803 1.17557 4
    endloop
  endfacet
  facet normal 0.707107 0.707107 0
    outer loop
      vertex 1.61803 1.17557 4
      vertex 1.17557 1.61803 5
      vertex 1.61803 1.17557 5
    endloop
  endfacet
  facet normal 0.45399 0.891007 0
    outer loop
      vertex 0.618034 1.90211 4
      vertex 0.618034 1.90211 5
      vertex 1.17557 1.61803 4
    endloop
  endfacet
  facet normal 0.45399 0.891007 0
    outer loop
      vertex 1.17557 1.61803 4
      vertex 0.618034 1.90211 5
      vertex 1.17557 1.61803 5
    endloop
  endfacet
  facet normal 0.156435 0.987688 0
    outer loop
      vertex 0 2 4
      vertex 0 2 5
      vertex 0.618034 1.90211 4
    endloop
  endfacet
  facet normal 0.156435 0.987688 0
    outer loop
      vertex 0.618034 1.90211 4
      vertex 0 2 5
      vertex 0.618034 1.90211 5
    endloop
  endfacet
  facet normal -0.156435 0.987688 0
    outer loop
      vertex -0.618034 1.90211 4
      vertex -0.618034 1.90211 5
      vertex 0 2 4
    endloop
  endfacet
  facet normal -0.156435 0.987688 0
    outer loop
      vertex 0 2 4
      vertex -0.618034 1.90211 5
      vertex 0 2 5
    endloop
  endfacet
  facet normal -0.45399 0.891007 0
    outer loop
      vertex -1.17557 1.61803 4
      vertex -1.17557 1.61803 5
      vertex -0.618034 1.90211 4
    endloop
  endfacet
  facet normal -0.45399 0.891007 0
    outer loop
      vertex -0.618034 1.90211 4
      vertex -1.17557 1.61803 5
      vertex -0.618034 1.90211 5
    endloop
  endfacet
  facet normal -0.707107 0.707107 0
    outer loop
      vertex -1.61803 1.17557 4
      vertex -1.61803 1.17557 5
      vertex -1.17557 1.61803 4
    endloop
  endfacet
  facet normal -0.707107 0.707107 0
    outer loop
      vertex -1.17557 1.61803 4
      vertex -1.61803 1.17557 5
      vertex -1.17557 1.61803 5
    endloop
  endfacet
  facet normal -0.891007 0.45399 0
    outer loop
      vertex -1.90211 0.618034 4
      vertex -1.90211 0.618034 5
      vertex -1.61803 1.17557 4
    endloop
  endfacet
  facet normal -0.891007 0.45399 0
    outer loop
      vertex -1.61803 1.17557 4
      vertex -1.90211 0.618034 5
      vertex -1.61803 1.17557 5
    endloop
  endfacet
  facet normal -0.987688 0.156434 0
    outer loop
      vertex -1.5 0 0
      vertex -1.5 0 4
      vertex -1.42658 0.463525 0
    endloop
  endfacet
  facet normal -0.987688 0.156434 0
    outer loop
      vertex -1.42658 0.463525 0
      vertex -1.5 0 4
      vertex -1.42658 0.463525 4
    endloop
  endfacet
  facet normal -0.987688 -0.156434 0
    outer loop
      vertex -1.5 0 0
      vertex -1.42658 -0.463525 0
      vertex -1.5 0 4
    endloop
  endfacet
  facet normal -0.987688 -0.156434 0
    outer loop
      vertex -1.5 0 4
      vertex -1.42658 -0.463525 0
      vertex -1.42658 -0.463525 4
    endloop
  endfacet
  facet normal -0.891006 0.453991 0
    outer loop
      vertex -1.42658 0.463525 0
      vertex -1.42658 0.463525 4
      vertex -1.21352 0.881678 0
    endloop
  endfacet
  facet normal -0.891006 0.453991 0
    outer loop
      vertex -1.21352 0.881678 0
      vertex -1.42658 0.463525 4
      vertex -1.21352 0.881678 4
    endloop
  endfacet
  facet normal -0.707107 0.707107 0
    outer loop
      vertex -1.21352 0.881678 0
      vertex -1.21352 0.881678 4
      vertex -0.881678 1.21352 0
    endloop
  endfacet
  facet normal -0.707107 0.707107 0
    outer loop
      vertex -0.881678 1.21352 0
      vertex -1.21352 0.881678 4
      vertex -0.881678 1.21352 4
    endloop
  endfacet
  facet normal -0.453991 0.891006 0
    outer loop
      vertex -0.881678 1.21352 0
      vertex -0.881678 1.21352 4
      vertex -0.463525 1.42658 0
    endloop
  endfacet
  facet normal -0.453991 0.891006 0
    outer loop
      vertex -0.463525 1.42658 0
      vertex -0.881678 1.21352 4
      vertex -0.463525 1.42658 4
    endloop
  endfacet
  facet normal -0.156434 0.987688 0
    outer loop
      vertex -0.463525 1.42658 0
      vertex -0.463525 1.42658 4
      vertex 0 1.5 0
    endloop
  endfacet
  facet normal -0.156434 0.987688 0
    outer loop
      vertex 0 1.5 0
      vertex -0.463525 1.42658 4
      vertex 0 1.5 4
    endloop
  endfacet
  facet normal 0.156434 0.987688 0
    outer loop
      vertex 0 1.5 0
      vertex 0 1.5 4
      vertex 0.463525 1.42658 0
    endloop
  endfacet
  facet normal 0.156434 0.987688 0
    outer loop
      vertex 0.463525 1.42658 0
      vertex 0 1.5 4
      vertex 0.463525 1.42658 4
    endloop
  endfacet
  facet normal 0.453991 0.891006 0
    outer loop
      vertex 0.463525 1.42658 0
      vertex 0.463525 1.42658 4
      vertex 0.881678 1.21352 0
    endloop
  endfacet
  facet normal 0.453991 0.891006 0
    outer loop
      vertex 0.881678 1.21352 0
      vertex 0.463525 1.42658 4
      vertex 0.881678 1.21352 4
    endloop
  endfacet
  facet normal 0.707107 0.707107 0
    outer loop
      vertex 0.881678 1.21352 0
      vertex 0.881678 1.21352 4
      vertex 1.21352 0.881678 0
    endloop
  endfacet
  facet normal 0.707107 0.707107 0
    outer loop
      vertex 1.21352 0.881678 0
      vertex 0.881678 1.21352 4
      vertex 1.21352 0.881678 4
    endloop
  endfacet
  facet normal 0.891006 0.453991 0
    outer loop
      vertex 1.42658 0.463525 0
      vertex 1.21352 0.881678 0
      vertex 1.21352 0.881678 4
    endloop
  endfacet
  facet normal 0.891006 0.453991 0
    outer loop
      vertex 1.42658 0.463525 4
      vertex 1.42658 0.463525 0
      vertex 1.21352 0.881678 4
    endloop
  endfacet
  facet normal 0.987688 0.156434 0
    outer loop
      vertex 1.5 0 0
      vertex 1.42658 0.463525 0
      vertex 1.42658 0.463525 4
    endloop
  endfacet
  facet normal 0.987688 0.156434 0
    outer loop
      vertex 1.5 0 4
      vertex 1.5 0 0
      vertex 1.42658 0.463525 4
    endloop
  endfacet
  facet normal 0.987688 -0.156434 0
    outer loop
      vertex 1.42658 -0.463525 4
      vertex 1.42658 -0.463525 0
      vertex 1.5 0 0
    endloop
  endfacet
  facet normal 0.987688 -0.156434 0
    outer loop
      vertex 1.5 0 4
      vertex 1.42658 -0.463525 4
      vertex 1.5 0 0
    endloop
  endfacet
  facet normal 0.891006 -0.453991 0
    outer loop
      vertex 1.21352 -0.881678 4
      vertex 1.21352 -0.881678 0
      vertex 1.42658 -0.463525 0
    endloop
  endfacet
  facet normal 0.891006 -0.453991 0
    outer loop
      vertex 1.42658 -0.463525 4
      vertex 1.21352 -0.881678 4
      vertex 1.42658 -0.463525 0
    endloop
  endfacet
  facet normal 0.707107 -0.707107 0
    outer loop
      vertex 0.881678 -1.21352 4
      vertex 0.881678 -1.21352 0
      vertex 1.21352 -0.881678 0
    endloop
  endfacet
  facet normal 0.707107 -0.707107 0
    outer loop
      vertex 1.21352 -0.881678 4
      vertex 0.881678 -1.21352 4
      vertex 1.21352 -0.881678 0
    endloop
  endfacet
  facet normal 0.453991 -0.891006 0
    outer loop
      vertex 0.463525 -1.42658 4
      vertex 0.463525 -1.42658 0
      vertex 0.881678 -1.21352 0
    endloop
  endfacet
  facet normal 0.453991 -0.891006 0
    outer loop
      vertex 0.881678 -1.21352 4
      vertex 0.463525 -1.42658 4
      vertex 0.881678 -1.21352 0
    endloop
  endfacet
  facet normal 0.156434 -0.987688 0
    outer loop
      vertex 0 -1.5 4
      vertex 0 -1.5 0
      vertex 0.463525 -1.42658 0
    endloop
  endfacet
  facet normal 0.156434 -0.987688 0
    outer loop
      vertex 0.463525 -1.42658 4
      vertex 0 -1.5 4
      vertex 0.463525 -1.42658 0
    endloop
  endfacet
  facet normal -0.156434 -0.987688 0
    outer loop
      vertex -0.463525 -1.42658 4
      vertex -0.463525 -1.42658 0
      vertex 0 -1.5 0
    endloop
  endfacet
  facet normal -0.156434 -0.987688 0
    outer loop
      vertex 0 -1.5 4
      vertex -0.463525 -1.42658 4
      vertex 0 -1.5 0
    endloop
  endfacet
  facet normal -0.453991 -0.891006 0
    outer loop
      vertex -0.881678 -1.21352 4
      vertex -0.881678 -1.21352 0
      vertex -0.463525 -1.42658 0
    endloop
  endfacet
  facet normal -0.453991 -0.891006 0
    outer loop
      vertex -0.463525 -1.42658 4
      vertex -0.881678 -1.21352 4
      vertex -0.463525 -1.42658 0
    endloop
  endfacet
  facet normal -0.707107 -0.707107 0
    outer loop
      vertex -1.21352 -0.881678 4
      vertex -1.21352 -0.881678 0
      vertex -0.881678 -1.21352 0
    endloop
  endfacet
  facet normal -0.707107 -0.707107 0
    outer loop
      vertex -0.881678 -1.21352 4
      vertex -1.21352 -0.881678 4
      vertex -0.881678 -1.21352 0
    endloop
  endfacet
  facet normal -0.891006 -0.453991 0
    outer loop
      vertex -1.42658 -0.463525 0
      vertex -1.21352 -0.881678 0
      vertex -1.42658 -0.463525 4
    endloop
  endfacet
  facet normal -0.891006 -0.453991 0
    outer loop
      vertex -1.42658 -0.463525 4
      vertex -1.21352 -0.881678 0
      vertex -1.21352 -0.881678 4
    endloop
  endfacet
  facet normal 0 0 1
    outer loop
      vertex -1.90211 0.618034 5
      vertex -2 0 5
      vertex -1.90211 -0.618034 5
    endloop
  endfacet
  facet normal 0 0 1
    outer loop
      vertex -1.17557 -1.61803 5
      vertex -1.90211 0.618034 5
      vertex -1.61803 -1.17557 5
    endloop
  endfacet
  facet normal 0 0 1
    outer loop
      vertex -1.61803 -1.17557 5
      vertex -1.90211 0.618034 5
      vertex -1.90211 -0.618034 5
    endloop
  endfacet
  facet normal 0 0 1
    outer loop
      vertex -1.42658 -0.463525 5
      vertex -1.90211 0.618034 5
      vertex -1.17557 -1.61803 5
    endloop
  endfacet
  facet normal 0 0 1
    outer loop
      vertex -0.463525 1.42658 5
      vertex 0 1.5 5
      vertex 0.618034 1.90211 5
    endloop
  endfacet
  facet normal 0 0 1
    outer loop
      vertex 0.463525 1.42658 5
      vertex 0.881678 1.21352 5
      vertex 1.17557 1.61803 5
    endloop
  endfacet
  facet normal 0 0 1
    outer loop
      vertex -0.618034 1.90211 5
      vertex -1.90211 0.618034 5
      vertex 0 2 5
    endloop
  endfacet
  facet normal 0 0 1
    outer loop
      vertex -1.17557 1.61803 5
      vertex -1.90211 0.618034 5
      vertex -0.618034 1.90211 5
    endloop
  endfacet
  facet normal 0 0 1
    outer loop
      vertex -1.61803 1.17557 5
      vertex -1.90211 0.618034 5
      vertex -1.17557 1.61803 5
    endloop
  endfacet
  facet normal 0 0 1
    outer loop
      vertex -1.21352 -0.881678 5
      vertex -1.42658 -0.463525 5
      vertex -1.17557 -1.61803 5
    endloop
  endfacet
  facet normal 0 0 1
    outer loop
      vertex 0.463525 -1.42658 5
      vertex 0 -1.5 5
      vertex 0.618034 -1.90211 5
    endloop
  endfacet
  facet normal 0 0 1
    outer loop
      vertex 0.881678 -1.21352 5
      vertex 0.463525 -1.42658 5
      vertex 1.17557 -1.61803 5
    endloop
  endfacet
  facet normal 0 0 1
    outer loop
      vertex 0.881678 1.21352 5
      vertex 1.21352 0.881678 5
      vertex 1.61803 1.17557 5
    endloop
  endfacet
  facet normal 0 0 1
    outer loop
      vertex 0 -1.5 5
      vertex -0.463525 -1.42658 5
      vertex 0 -2 5
    endloop
  endfacet
  facet normal 0 0 1
    outer loop
      vertex 0 2 5
      vertex -1.90211 0.618034 5
      vertex -0.881678 1.21352 5
    endloop
  endfacet
  facet normal 0 0 1
    outer loop
      vertex 0 2 5
      vertex -0.463525 1.42658 5
      vertex 0.618034 1.90211 5
    endloop
  endfacet
  facet normal 0 0 1
    outer loop
      vertex 0 2 5
      vertex -0.881678 1.21352 5
      vertex -0.463525 1.42658 5
    endloop
  endfacet
  facet normal 0 0 1
    outer loop
      vertex 0.618034 1.90211 5
      vertex 0 1.5 5
      vertex 1.17557 1.61803 5
    endloop
  endfacet
  facet normal 0 0 1
    outer loop
      vertex 0 1.5 5
      vertex 0.463525 1.42658 5
      vertex 1.17557 1.61803 5
    endloop
  endfacet
  facet normal 0 0 1
    outer loop
      vertex 1.17557 1.61803 5
      vertex 0.881678 1.21352 5
      vertex 1.61803 1.17557 5
    endloop
  endfacet
  facet normal 0 0 1
    outer loop
      vertex -1.21352 0.881678 5
      vertex -0.881678 1.21352 5
      vertex -1.90211 0.618034 5
    endloop
  endfacet
  facet normal 0 0 1
    outer loop
      vertex 1.61803 1.17557 5
      vertex 1.21352 0.881678 5
      vertex 1.90211 0.618034 5
    endloop
  endfacet
  facet normal 0 0 1
    outer loop
      vertex 1.90211 0.618034 5
      vertex 1.42658 0.463525 5
      vertex 2 0 5
    endloop
  endfacet
  facet normal 0 0 1
    outer loop
      vertex 2 0 5
      vertex 1.5 0 5
      vertex 1.90211 -0.618034 5
    endloop
  endfacet
  facet normal 0 0 1
    outer loop
      vertex 1.5 0 5
      vertex 1.42658 -0.463525 5
      vertex 1.90211 -0.618034 5
    endloop
  endfacet
  facet normal 0 0 1
    outer loop
      vertex 1.90211 -0.618034 5
      vertex 1.21352 -0.881678 5
      vertex 1.61803 -1.17557 5
    endloop
  endfacet
  facet normal 0 0 1
    outer loop
      vertex 1.61803 -1.17557 5
      vertex 0.881678 -1.21352 5
      vertex 1.17557 -1.61803 5
    endloop
  endfacet
  facet normal 0 0 1
    outer loop
      vertex 1.21352 0.881678 5
      vertex 1.42658 0.463525 5
      vertex 1.90211 0.618034 5
    endloop
  endfacet
  facet normal 0 0 1
    outer loop
      vertex 1.17557 -1.61803 5
      vertex 0.463525 -1.42658 5
      vertex 0.618034 -1.90211 5
    endloop
  endfacet
  facet normal 0 0 1
    outer loop
      vertex 1.42658 0.463525 5
      vertex 1.5 0 5
      vertex 2 0 5
    endloop
  endfacet
  facet normal 0 0 1
    outer loop
      vertex 0.618034 -1.90211 5
      vertex 0 -1.5 5
      vertex 0 -2 5
    endloop
  endfacet
  facet normal 0 0 1
    outer loop
      vertex 1.42658 -0.463525 5
      vertex 1.21352 -0.881678 5
      vertex 1.90211 -0.618034 5
    endloop
  endfacet
  facet normal 0 0 1
    outer loop
      vertex 0 -2 5
      vertex -0.463525 -1.42658 5
      vertex -0.618034 -1.90211 5
    endloop
  endfacet
  facet normal 0 0 1
    outer loop
      vertex -0.463525 -1.42658 5
      vertex -0.881678 -1.21352 5
      vertex -0.618034 -1.90211 5
    endloop
  endfacet
  facet normal 0 0 1
    outer loop
      vertex -0.618034 -1.90211 5
      vertex -1.21352 -0.881678 5
      vertex -1.17557 -1.61803 5
    endloop
  endfacet
  facet normal 0 0 1
    outer loop
      vertex -1.42658 -0.463525 5
      vertex -1.5 0 5
      vertex -1.90211 0.618034 5
    endloop
  endfacet
  facet normal 0 0 1
    outer loop
      vertex -0.881678 -1.21352 5
      vertex -1.21352 -0.881678 5
      vertex -0.618034 -1.90211 5
    endloop
  endfacet
  facet normal 0 0 1
    outer loop
      vertex -1.5 0 5
      vertex -1.42658 0.463525 5
      vertex -1.90211 0.618034 5
    endloop
  endfacet
  facet normal 0 0 1
    outer loop
      vertex 1.21352 -0.881678 5
      vertex 0.881678 -1.21352 5
      vertex 1.61803 -1.17557 5
    endloop
  endfacet
  facet normal 0 0 1
    outer loop
      vertex -1.42658 0.463525 5
      vertex -1.21352 0.881678 5
      vertex -1.90211 0.618034 5
    endloop
  endfacet
  facet normal 0 0 -1
    outer loop
      vertex -1.5 0 0
      vertex -1.42658 0.463525 0
      vertex -1.42658 -0.463525 0
    endloop
  endfacet
  facet normal 0 0 -1
    outer loop
      vertex -1.42658 -0.463525 0
      vertex -1.42658 0.463525 0
      vertex -1.21352 0.881678 0
    endloop
  endfacet
  facet normal 0 0 -1
    outer loop
      vertex -1.42658 -0.463525 0
      vertex -1.21352 0.881678 0
      vertex -0.881678 1.21352 0
    endloop
  endfacet
  facet normal 0 0 -1
    outer loop
      vertex -1.42658 -0.463525 0
      vertex -0.881678 1.21352 0
      vertex -0.463525 1.42658 0
    endloop
  endfacet
  facet normal 0 0 -1
    outer loop
      vertex -1.42658 -0.463525 0
      vertex -0.463525 1.42658 0
      vertex 0 1.5 0
    endloop
  endfacet
  facet normal 0 0 -1
    outer loop
      vertex -1.42658 -0.463525 0
      vertex 0 1.5 0
      vertex 0.463525 1.42658 0
    endloop
  endfacet
  facet normal 0 0 -1
    outer loop
      vertex -1.42658 -0.463525 0
      vertex 0.463525 1.42658 0
      vertex 0.881678 1.21352 0
    endloop
  endfacet
  facet normal 0 0 -1
    outer loop
      vertex -1.42658 -0.463525 0
      vertex 0.881678 1.21352 0
      vertex 1.21352 0.881678 0
    endloop
  endfacet
  facet normal 0 0 -1
    outer loop
      vertex -1.42658 -0.463525 0
      vertex 1.21352 0.881678 0
      vertex 1.42658 0.463525 0
    endloop
  endfacet
  facet normal 0 0 -1
    outer loop
      vertex -1.42658 -0.463525 0
      vertex 1.42658 0.463525 0
      vertex 1.5 0 0
    endloop
  endfacet
  facet normal 0 0 -1
    outer loop
      vertex -1.42658 -0.463525 0
      vertex 1.5 0 0
      vertex 1.42658 -0.463525 0
    endloop
  endfacet
  facet normal 0 0 -1
    outer loop
      vertex -1.42658 -0.463525 0
      vertex 1.42658 -0.463525 0
      vertex 1.21352 -0.881678 0
    endloop
  endfacet
  facet normal 0 0 -1
    outer loop
      vertex -1.42658 -0.463525 0
      vertex 1.21352 -0.881678 0
      vertex 0.881678 -1.21352 0
    endloop
  endfacet
  facet normal 0 0 -1
    outer loop
      vertex -1.42658 -0.463525 0
      vertex 0.881678 -1.21352 0
      vertex 0.463525 -1.42658 0
    endloop
  endfacet
  facet normal 0 0 -1
    outer loop
      vertex -1.42658 -0.463525 0
      vertex 0.463525 -1.42658 0
      vertex 0 -1.5 0
    endloop
  endfacet
  facet normal 0 0 -1
    outer loop
      vertex -1.42658 -0.463525 0
      vertex 0 -1.5 0
      vertex -0.463525 -1.42658 0
    endloop
  endfacet
  facet normal 0 0 -1
    outer loop
      vertex -1.42658 -0.463525 0
      vertex -0.463525 -1.42658 0
      vertex -0.881678 -1.21352 0
    endloop
  endfacet
  facet normal 0 0 -1
    outer loop
      vertex -1.42658 -0.463525 0
      vertex -0.881678 -1.21352 0
      vertex -1.21352 -0.881678 0
    endloop
  endfacet
  facet normal -0.987688 -0.156434 0
    outer loop
      vertex -1.5 0 5
      vertex -1.42658 -0.463525 5
      vertex -1.5 0 10
    endloop
  endfacet
  facet normal -0.987688 -0.156434 0
    outer loop
      vertex -1.5 0 10
      vertex -1.42658 -0.463525 5
      vertex -1.42658 -0.463525 10
    endloop
  endfacet
  facet normal -0.891006 -0.453991 0
    outer loop
      vertex -1.42658 -0.463525 5
      vertex -1.21352 -0.881678 5
      vertex -1.42658 -0.463525 10
    endloop
  endfacet
  facet normal -0.891006 -0.453991 0
    outer loop
      vertex -1.42658 -0.463525 10
      vertex -1.21352 -0.881678 5
      vertex -1.21352 -0.881678 10
    endloop
  endfacet
  facet normal -0.707107 -0.707107 0
    outer loop
      vertex -1.21352 -0.881678 10
      vertex -1.21352 -0.881678 5
      vertex -0.881678 -1.21352 5
    endloop
  endfacet
  facet normal -0.707107 -0.707107 0
    outer loop
      vertex -0.881678 -1.21352 10
      vertex -1.21352 -0.881678 10
      vertex -0.881678 -1.21352 5
    endloop
  endfacet
  facet normal -0.453991 -0.891006 0
    outer loop
      vertex -0.881678 -1.21352 10
      vertex -0.881678 -1.21352 5
      vertex -0.463525 -1.42658 5
    endloop
  endfacet
  facet normal -0.453991 -0.891006 0
    outer loop
      vertex -0.463525 -1.42658 10
      vertex -0.881678 -1.21352 10
      vertex -0.463525 -1.42658 5
    endloop
  endfacet
  facet normal -0.156434 -0.987688 0
    outer loop
      vertex -0.463525 -1.42658 10
      vertex -0.463525 -1.42658 5
      vertex 0 -1.5 5
    endloop
  endfacet
  facet normal -0.156434 -0.987688 0
    outer loop
      vertex 0 -1.5 10
      vertex -0.463525 -1.42658 10
      vertex 0 -1.5 5
    endloop
  endfacet
  facet normal 0.156434 -0.987688 0
    outer loop
      vertex 0 -1.5 10
      vertex 0 -1.5 5
      vertex 0.463525 -1.42658 5
    endloop
  endfacet
  facet normal 0.156434 -0.987688 0
    outer loop
      vertex 0.463525 -1.42658 10
      vertex 0 -1.5 10
      vertex 0.463525 -1.42658 5
    endloop
  endfacet
  facet normal 0.453991 -0.891006 0
    outer loop
      vertex 0.463525 -1.42658 10
      vertex 0.463525 -1.42658 5
      vertex 0.881678 -1.21352 5
    endloop
  endfacet
  facet normal 0.453991 -0.891006 0
    outer loop
      vertex 0.881678 -1.21352 10
      vertex 0.463525 -1.42658 10
      vertex 0.881678 -1.21352 5
    endloop
  endfacet
  facet normal 0.707107 -0.707107 0
    outer loop
      vertex 0.881678 -1.21352 10
      vertex 0.881678 -1.21352 5
      vertex 1.21352 -0.881678 5
    endloop
  endfacet
  facet normal 0.707107 -0.707107 0
    outer loop
      vertex 1.21352 -0.881678 10
      vertex 0.881678 -1.21352 10
      vertex 1.21352 -0.881678 5
    endloop
  endfacet
  facet normal 0.891006 -0.453991 0
    outer loop
      vertex 1.21352 -0.881678 10
      vertex 1.21352 -0.881678 5
      vertex 1.42658 -0.463525 5
    endloop
  endfacet
  facet normal 0.891006 -0.453991 0
    outer loop
      vertex 1.42658 -0.463525 10
      vertex 1.21352 -0.881678 10
      vertex 1.42658 -0.463525 5
    endloop
  endfacet
  facet normal 0.987688 -0.156434 0
    outer loop
      vertex 1.42658 -0.463525 10
      vertex 1.42658 -0.463525 5
      vertex 1.5 0 5
    endloop
  endfacet
  facet normal 0.987688 -0.156434 0
    outer loop
      vertex 1.5 0 10
      vertex 1.42658 -0.463525 10
      vertex 1.5 0 5
    endloop
  endfacet
  facet normal 0.987688 0.156434 0
    outer loop
      vertex 1.5 0 5
      vertex 1.42658 0.463525 5
      vertex 1.42658 0.463525 10
    endloop
  endfacet
  facet normal 0.987688 0.156434 0
    outer loop
      vertex 1.5 0 10
      vertex 1.5 0 5
      vertex 1.42658 0.463525 10
    endloop
  endfacet
  facet normal 0.891006 0.453991 0
    outer loop
      vertex 1.42658 0.463525 5
      vertex 1.21352 0.881678 5
      vertex 1.21352 0.881678 10
    endloop
  endfacet
  facet normal 0.891006 0.453991 0
    outer loop
      vertex 1.42658 0.463525 10
      vertex 1.42658 0.463525 5
      vertex 1.21352 0.881678 10
    endloop
  endfacet
  facet normal 0.707107 0.707107 0
    outer loop
      vertex 0.881678 1.21352 5
      vertex 0.881678 1.21352 10
      vertex 1.21352 0.881678 5
    endloop
  endfacet
  facet normal 0.707107 0.707107 0
    outer loop
      vertex 1.21352 0.881678 5
      vertex 0.881678 1.21352 10
      vertex 1.21352 0.881678 10
    endloop
  endfacet
  facet normal 0.453991 0.891006 0
    outer loop
      vertex 0.463525 1.42658 5
      vertex 0.463525 1.42658 10
      vertex 0.881678 1.21352 5
    endloop
  endfacet
  facet normal 0.453991 0.891006 0
    outer loop
      vertex 0.881678 1.21352 5
      vertex 0.463525 1.42658 10
      vertex 0.881678 1.21352 10
    endloop
  endfacet
  facet normal 0.156434 0.987688 0
    outer loop
      vertex 0 1.5 5
      vertex 0 1.5 10
      vertex 0.463525 1.42658 5
    endloop
  endfacet
  facet normal 0.156434 0.987688 0
    outer loop
      vertex 0.463525 1.42658 5
      vertex 0 1.5 10
      vertex 0.463525 1.42658 10
    endloop
  endfacet
  facet normal -0.156434 0.987688 0
    outer loop
      vertex -0.463525 1.42658 5
      vertex -0.463525 1.42658 10
      vertex 0 1.5 5
    endloop
  endfacet
  facet normal -0.156434 0.987688 0
    outer loop
      vertex 0 1.5 5
      vertex -0.463525 1.42658 10
      vertex 0 1.5 10
    endloop
  endfacet
  facet normal -0.453991 0.891006 0
    outer loop
      vertex -0.881678 1.21352 5
      vertex -0.881678 1.21352 10
      vertex -0.463525 1.42658 5
    endloop
  endfacet
  facet normal -0.453991 0.891006 0
    outer loop
      vertex -0.463525 1.42658 5
      vertex -0.881678 1.21352 10
      vertex -0.463525 1.42658 10
    endloop
  endfacet
  facet normal -0.707107 0.707107 0
    outer loop
      vertex -1.21352 0.881678 5
      vertex -1.21352 0.881678 10
      vertex -0.881678 1.21352 5
    endloop
  endfacet
  facet normal -0.707107 0.707107 0
    outer loop
      vertex -0.881678 1.21352 5
      vertex -1.21352 0.881678 10
      vertex -0.881678 1.21352 10
    endloop
  endfacet
  facet normal -0.891006 0.453991 0
    outer loop
      vertex -1.42658 0.463525 5
      vertex -1.42658 0.463525 10
      vertex -1.21352 0.881678 5
    endloop
  endfacet
  facet normal -0.891006 0.453991 0
    outer loop
      vertex -1.21352 0.881678 5
      vertex -1.42658 0.463525 10
      vertex -1.21352 0.881678 10
    endloop
  endfacet
  facet normal -0.987688 0.156434 0
    outer loop
      vertex -1.5 0 5
      vertex -1.5 0 10
      vertex -1.42658 0.463525 5
    endloop
  endfacet
  facet normal -0.987688 0.156434 0
    outer loop
      vertex -1.42658 0.463525 5
      vertex -1.5 0 10
      vertex -1.42658 0.463525 10
    endloop
  endfacet
  facet normal 0 0 1
    outer loop
      vertex -1.42658 0.463525 10
      vertex -1.5 0 10
      vertex -1.42658 -0.463525 10
    endloop
  endfacet
  facet normal 0 0 1
    outer loop
      vertex -0.881678 -1.21352 10
      vertex -1.42658 0.463525 10
      vertex -1.21352 -0.881678 10
    endloop
  endfacet
  facet normal 0 0 1
    outer loop
      vertex -1.21352 -0.881678 10
      vertex -1.42658 0.463525 10
      vertex -1.42658 -0.463525 10
    endloop
  endfacet
  facet normal 0 0 1
    outer loop
      vertex -0.463525 -1.42658 10
      vertex -1.42658 0.463525 10
      vertex -0.881678 -1.21352 10
    endloop
  endfacet
  facet normal 0 0 1
    outer loop
      vertex 0 -1.5 10
      vertex -1.42658 0.463525 10
      vertex -0.463525 -1.42658 10
    endloop
  endfacet
  facet normal 0 0 1
    outer loop
      vertex 0.463525 -1.42658 10
      vertex -1.42658 0.463525 10
      vertex 0 -1.5 10
    endloop
  endfacet
  facet normal 0 0 1
    outer loop
      vertex 0.881678 -1.21352 10
      vertex -1.42658 0.463525 10
      vertex 0.463525 -1.42658 10
    endloop
  endfacet
  facet normal 0 0 1
    outer loop
      vertex 1.21352 -0.881678 10
      vertex -1.42658 0.463525 10
      vertex 0.881678 -1.21352 10
    endloop
  endfacet
  facet normal 0 0 1
    outer loop
      vertex 1.42658 -0.463525 10
      vertex -1.42658 0.463525 10
      vertex 1.21352 -0.881678 10
    endloop
  endfacet
  facet normal 0 0 1
    outer loop
      vertex 1.5 0 10
      vertex -1.42658 0.463525 10
      vertex 1.42658 -0.463525 10
    endloop
  endfacet
  facet normal 0 0 1
    outer loop
      vertex 1.42658 0.463525 10
      vertex -1.42658 0.463525 10
      vertex 1.5 0 10
    endloop
  endfacet
  facet normal 0 0 1
    outer loop
      vertex 1.21352 0.881678 10
      vertex -1.42658 0.463525 10
      vertex 1.42658 0.463525 10
    endloop
  endfacet
  facet normal 0 0 1
    outer loop
      vertex 0.881678 1.21352 10
      vertex -1.42658 0.463525 10
      vertex 1.21352 0.881678 10
    endloop
  endfacet
  facet normal 0 0 1
    outer loop
      vertex 0.463525 1.42658 10
      vertex -1.42658 0.463525 10
      vertex 0.881678 1.21352 10
    endloop
  endfacet
  facet normal 0 0 1
    outer loop
      vertex 0 1.5 10
      vertex -1.42658 0.463525 10
      vertex 0.463525 1.42658 10
    endloop
  endfacet
  facet normal 0 0 1
    outer loop
      vertex -0.463525 1.42658 10
      vertex -1.42658 0.463525 10
      vertex 0 1.5 10
    endloop
  endfacet
  facet normal 0 0 1
    outer loop
      vertex -0.881678 1.21352 10
      vertex -1.42658 0.463525 10
      vertex -0.463525 1.42658 10
    endloop
  endfacet
  facet normal 0 0 1
    outer loop
      vertex -1.21352 0.881678 10
      vertex -1.42658 0.463525 10
      vertex -0.881678 1.21352 10
    endloop
  endfacet
endsolid OpenSCAD_Model
