solid OpenSCAD_Model
  facet normal -1 0 0
    outer loop
      vertex -28 12 0
      vertex -28 12 8
      vertex -28 28 0
    endloop
  endfacet
  facet normal -1 0 0
    outer loop
      vertex -28 28 0
      vertex -28 12 8
      vertex -28 28 8
    endloop
  endfacet
  facet normal 0 -1 0
    outer loop
      vertex -28 12 8
      vertex -28 12 0
      vertex -12 12 0
    endloop
  endfacet
  facet normal 0 -1 0
    outer loop
      vertex -12 12 8
      vertex -28 12 8
      vertex -12 12 0
    endloop
  endfacet
  facet normal 0 0 -1
    outer loop
      vertex -28 12 0
      vertex -28 28 0
      vertex -12 12 0
    endloop
  endfacet
  facet normal 0 0 -1
    outer loop
      vertex -12 12 0
      vertex -28 28 0
      vertex -12 28 0
    endloop
  endfacet
  facet normal 0 1 0
    outer loop
      vertex -28 28 0
      vertex -28 28 8
      vertex -12 28 0
    endloop
  endfacet
  facet normal 0 1 0
    outer loop
      vertex -12 28 0
      vertex -28 28 8
      vertex -12 28 8
    endloop
  endfacet
  facet normal 0 0 1
    outer loop
      vertex -26 14 8
      vertex -28 12 8
      vertex -12 12 8
    endloop
  endfacet
  facet normal 0 0 1
    outer loop
      vertex -26 26 8
      vertex -28 28 8
      vertex -26 14 8
    endloop
  endfacet
  facet normal 0 0 1
    outer loop
      vertex -14 14 8
      vertex -26 14 8
      vertex -12 12 8
    endloop
  endfacet
  facet normal 0 0 1
    outer loop
      vertex -28 28 8
      vertex -28 12 8
      vertex -26 14 8
    endloop
  endfacet
  facet normal 0 0 1
    outer loop
      vertex -12 28 8
      vertex -28 28 8
      vertex -26 26 8
    endloop
  endfacet
  facet normal 0 0 1
    outer loop
      vertex -12 28 8
      vertex -14 26 8
      vertex -12 12 8
    endloop
  endfacet
  facet normal 0 0 1
    outer loop
      vertex -12 28 8
      vertex -26 26 8
      vertex -14 26 8
    endloop
  endfacet
  facet normal 0 0 1
    outer loop
      vertex -14 26 8
      vertex -14 14 8
      vertex -12 12 8
    endloop
  endfacet
  facet normal 1 0 0
    outer loop
      vertex -12 12 8
      vertex -12 12 0
      vertex -12 28 0
    endloop
  endfacet
  facet normal 1 0 0
    outer loop
      vertex -12 28 8
      vertex -12 12 8
      vertex -12 28 0
    endloop
  endfacet
  facet normal -1 0 0
    outer loop
      vertex -26 14 8
      vertex -26 14 20
      vertex -26 26 8
    endloop
  endfacet
  facet normal -1 0 0
    outer loop
      vertex -26 26 8
      vertex -26 14 20
      vertex -26 26 20
    endloop
  endfacet
  facet normal 0 -1 0
    outer loop
      vertex -26 14 20
      vertex -26 14 8
      vertex -14 14 8
    endloop
  endfacet
  facet normal 0 -1 0
    outer loop
      vertex -14 14 20
      vertex -26 14 20
      vertex -14 14 8
    endloop
  endfacet
  facet normal 1 0 0
    outer loop
      vertex -14 14 20
      vertex -14 14 8
      vertex -14 26 8
    endloop
  endfacet
  facet normal 1 0 0
    outer loop
      vertex -14 26 20
      vertex -14 14 20
      vertex -14 26 8
    endloop
  endfacet
  facet normal 0 1 0
    outer loop
      vertex -26 26 8
      vertex -26 26 20
      vertex -14 26 8
    endloop
  endfacet
  facet normal 0 1 0
    outer loop
      vertex -14 26 8
      vertex -26 26 20
      vertex -14 26 20
    endloop
  endfacet
  facet normal 0 0 1
    outer loop
      vertex -26 26 20
      vertex -26 14 20
      vertex -14 14 20
    endloop
  endfacet
  facet normal 0 0 1
    outer loop
      vertex -14 26 20
      vertex -26 26 20
      vertex -14 14 20
    endloop
  endfacet
  facet normal -1 0 0
    outer loop
      vertex 12 12 0
      vertex 12 12 8
      vertex 12 28 0
    endloop
  endfacet
  facet normal -1 0 0
    outer loop
      vertex 12 28 0
      vertex 12 12 8
      vertex 12 28 8
    endloop
  endfacet
  facet normal 0 -1 0
    outer loop
      vertex 12 12 8
      vertex 12 12 0
      vertex 28 12 0
    endloop
  endfacet
  facet normal 0 -1 0
    outer loop
      vertex 28 12 8
      vertex 12 12 8
      vertex 28 12 0
    endloop
  endfacet
  facet normal 0 0 -1
    outer loop
      vertex 12 12 0
      vertex 12 28 0
      vertex 28 12 0
    endloop
  endfacet
  facet normal 0 0 -1
    outer loop
      vertex 28 12 0
      vertex 12 28 0
      vertex 28 28 0
    endloop
  endfacet
  facet normal 0 1 0
    outer loop
      vertex 12 28 0
      vertex 12 28 8
      vertex 28 28 0
    endloop
  endfacet
  facet normal 0 1 0
    outer loop
      vertex 28 28 0
      vertex 12 28 8
      vertex 28 28 8
    endloop
  endfacet
  facet normal 0 0 1
    outer loop
      vertex 14 14 8
      vertex 12 12 8
      vertex 28 12 8
    endloop
  endfacet
  facet normal 0 0 1
    outer loop
      vertex 14 26 8
      vertex 12 28 8
      vertex 14 14 8
    endloop
  endfacet
  facet normal 0 0 1
    outer loop
      vertex 26 14 8
      vertex 14 14 8
      vertex 28 12 8
    endloop
  endfacet
  facet normal 0 0 1
    outer loop
      vertex 12 28 8
      vertex 12 12 8
      vertex 14 14 8
    endloop
  endfacet
  facet normal 0 0 1
    outer loop
      vertex 28 28 8
      vertex 12 28 8
      vertex 14 26 8
    endloop
  endfacet
  facet normal 0 0 1
    outer loop
      vertex 28 28 8
      vertex 26 26 8
      vertex 28 12 8
    endloop
  endfacet
  facet normal 0 0 1
    outer loop
      vertex 28 28 8
      vertex 14 26 8
      vertex 26 26 8
    endloop
  endfacet
  facet normal 0 0 1
    outer loop
      vertex 26 26 8
      vertex 26 14 8
      vertex 28 12 8
    endloop
  endfacet
  facet normal 1 0 0
    outer loop
      vertex 28 12 8
      vertex 28 12 0
      vertex 28 28 0
    endloop
  endfacet
  facet normal 1 0 0
    outer loop
      vertex 28 28 8
      vertex 28 12 8
      vertex 28 28 0
    endloop
  endfacet
  facet normal -1 0 0
    outer loop
      vertex 14 14 8
      vertex 14 14 20
      vertex 14 26 8
    endloop
  endfacet
  facet normal -1 0 0
    outer loop
      vertex 14 26 8
      vertex 14 14 20
      vertex 14 26 20
    endloop
  endfacet
  facet normal 0 -1 0
    outer loop
      vertex 14 14 20
      vertex 14 14 8
      vertex 26 14 8
    endloop
  endfacet
  facet normal 0 -1 0
    outer loop
      vertex 26 14 20
      vertex 14 14 20
      vertex 26 14 8
    endloop
  endfacet
  facet normal 1 0 0
    outer loop
      vertex 26 14 20
      vertex 26 14 8
      vertex 26 26 8
    endloop
  endfacet
  facet normal 1 0 0
    outer loop
      vertex 26 26 20
      vertex 26 14 20
      vertex 26 26 8
    endloop
  endfacet
  facet normal 0 1 0
    outer loop
      vertex 14 26 8
      vertex 14 26 20
      vertex 26 26 8
    endloop
  endfacet
  facet normal 0 1 0
    outer loop
      vertex 26 26 8
      vertex 14 26 20
      vertex 26 26 20
    endloop
  endfacet
  facet normal 0 0 1
    outer loop
      vertex 14 26 20
      vertex 14 14 20
      vertex 26 14 20
    endloop
  endfacet
  facet normal 0 0 1
    outer loop
      vertex 26 26 20
      vertex 14 26 20
      vertex 26 14 20
    endloop
  endfacet
  facet normal -1 0 0
    outer loop
      vertex 12 -28 0
      vertex 12 -28 8
      vertex 12 -12 0
    endloop
  endfacet
  facet normal -1 0 0
    outer loop
      vertex 12 -12 0
      vertex 12 -28 8
      vertex 12 -12 8
    endloop
  endfacet
  facet normal 0 -1 0
    outer loop
      vertex 12 -28 8
      vertex 12 -28 0
      vertex 28 -28 0
    endloop
  endfacet
  facet normal 0 -1 0
    outer loop
      vertex 28 -28 8
      vertex 12 -28 8
      vertex 28 -28 0
    endloop
  endfacet
  facet normal 0 0 -1
    outer loop
      vertex 12 -28 0
      vertex 12 -12 0
      vertex 28 -28 0
    endloop
  endfacet
  facet normal 0 0 -1
    outer loop
      vertex 28 -28 0
      vertex 12 -12 0
      vertex 28 -12 0
    endloop
  endfacet
  facet normal 0 1 0
    outer loop
      vertex 12 -12 0
      vertex 12 -12 8
      vertex 28 -12 0
    endloop
  endfacet
  facet normal 0 1 0
    outer loop
      vertex 28 -12 0
      vertex 12 -12 8
      vertex 28 -12 8
    endloop
  endfacet
  facet normal 0 0 1
    outer loop
      vertex 14 -26 8
      vertex 12 -28 8
      vertex 28 -28 8
    endloop
  endfacet
  facet normal 0 0 1
    outer loop
      vertex 14 -14 8
      vertex 12 -12 8
      vertex 14 -26 8
    endloop
  endfacet
  facet normal 0 0 1
    outer loop
      vertex 26 -26 8
      vertex 14 -26 8
      vertex 28 -28 8
    endloop
  endfacet
  facet normal 0 0 1
    outer loop
      vertex 12 -12 8
      vertex 12 -28 8
      vertex 14 -26 8
    endloop
  endfacet
  facet normal 0 0 1
    outer loop
      vertex 28 -12 8
      vertex 12 -12 8
      vertex 14 -14 8
    endloop
  endfacet
  facet normal 0 0 1
    outer loop
      vertex 28 -12 8
      vertex 26 -14 8
      vertex 28 -28 8
    endloop
  endfacet
  facet normal 0 0 1
    outer loop
      vertex 28 -12 8
      vertex 14 -14 8
      vertex 26 -14 8
    endloop
  endfacet
  facet normal 0 0 1
    outer loop
      vertex 26 -14 8
      vertex 26 -26 8
      vertex 28 -28 8
    endloop
  endfacet
  facet normal 1 0 0
    outer loop
      vertex 28 -28 8
      vertex 28 -28 0
      vertex 28 -12 0
    endloop
  endfacet
  facet normal 1 0 0
    outer loop
      vertex 28 -12 8
      vertex 28 -28 8
      vertex 28 -12 0
    endloop
  endfacet
  facet normal -1 0 0
    outer loop
      vertex 14 -26 8
      vertex 14 -26 20
      vertex 14 -14 8
    endloop
  endfacet
  facet normal -1 0 0
    outer loop
      vertex 14 -14 8
      vertex 14 -26 20
      vertex 14 -14 20
    endloop
  endfacet
  facet normal 0 -1 0
    outer loop
      vertex 14 -26 20
      vertex 14 -26 8
      vertex 26 -26 8
    endloop
  endfacet
  facet normal 0 -1 0
    outer loop
      vertex 26 -26 20
      vertex 14 -26 20
      vertex 26 -26 8
    endloop
  endfacet
  facet normal 1 0 0
    outer loop
      vertex 26 -26 20
      vertex 26 -26 8
      vertex 26 -14 8
    endloop
  endfacet
  facet normal 1 0 0
    outer loop
      vertex 26 -14 20
      vertex 26 -26 20
      vertex 26 -14 8
    endloop
  endfacet
  facet normal 0 1 0
    outer loop
      vertex 14 -14 8
      vertex 14 -14 20
      vertex 26 -14 8
    endloop
  endfacet
  facet normal 0 1 0
    outer loop
      vertex 26 -14 8
      vertex 14 -14 20
      vertex 26 -14 20
    endloop
  endfacet
  facet normal 0 0 1
    outer loop
      vertex 14 -14 20
      vertex 14 -26 20
      vertex 26 -26 20
    endloop
  endfacet
  facet normal 0 0 1
    outer loop
      vertex 26 -14 20
      vertex 14 -14 20
      vertex 26 -26 20
    endloop
  endfacet
  facet normal -1 0 0
    outer loop
      vertex -28 -28 0
      vertex -28 -28 8
      vertex -28 -12 0
    endloop
  endfacet
  facet normal -1 0 0
    outer loop
      vertex -28 -12 0
      vertex -28 -28 8
      vertex -28 -12 8
    endloop
  endfacet
  facet normal 0 -1 0
    outer loop
      vertex -28 -28 8
      vertex -28 -28 0
      vertex -12 -28 0
    endloop
  endfacet
  facet normal 0 -1 0
    outer loop
      vertex -12 -28 8
      vertex -28 -28 8
      vertex -12 -28 0
    endloop
  endfacet
  facet normal 0 0 -1
    outer loop
      vertex -28 -28 0
      vertex -28 -12 0
      vertex -12 -28 0
    endloop
  endfacet
  facet normal 0 0 -1
    outer loop
      vertex -12 -28 0
      vertex -28 -12 0
      vertex -12 -12 0
    endloop
  endfacet
  facet normal 0 1 0
    outer loop
      vertex -28 -12 0
      vertex -28 -12 8
      vertex -12 -12 0
    endloop
  endfacet
  facet normal 0 1 0
    outer loop
      vertex -12 -12 0
      vertex -28 -12 8
      vertex -12 -12 8
    endloop
  endfacet
  facet normal 0 0 1
    outer loop
      vertex -26 -26 8
      vertex -28 -28 8
      vertex -12 -28 8
    endloop
  endfacet
  facet normal 0 0 1
    outer loop
      vertex -26 -14 8
      vertex -28 -12 8
      vertex -26 -26 8
    endloop
  endfacet
  facet normal 0 0 1
    outer loop
      vertex -14 -26 8
      vertex -26 -26 8
      vertex -12 -28 8
    endloop
  endfacet
  facet normal 0 0 1
    outer loop
      vertex -28 -12 8
      vertex -28 -28 8
      vertex -26 -26 8
    endloop
  endfacet
  facet normal 0 0 1
    outer loop
      vertex -12 -12 8
      vertex -28 -12 8
      vertex -26 -14 8
    endloop
  endfacet
  facet normal 0 0 1
    outer loop
      vertex -12 -12 8
      vertex -14 -14 8
      vertex -12 -28 8
    endloop
  endfacet
  facet normal 0 0 1
    outer loop
      vertex -12 -12 8
      vertex -26 -14 8
      vertex -14 -14 8
    endloop
  endfacet
  facet normal 0 0 1
    outer loop
      vertex -14 -14 8
      vertex -14 -26 8
      vertex -12 -28 8
    endloop
  endfacet
  facet normal 1 0 0
    outer loop
      vertex -12 -28 8
      vertex -12 -28 0
      vertex -12 -12 0
    endloop
  endfacet
  facet normal 1 0 0
    outer loop
      vertex -12 -12 8
      vertex -12 -28 8
      vertex -12 -12 0
    endloop
  endfacet
  facet normal -1 0 0
    outer loop
      vertex -26 -26 8
      vertex -26 -26 20
      vertex -26 -14 8
    endloop
  endfacet
  facet normal -1 0 0
    outer loop
      vertex -26 -14 8
      vertex -26 -26 20
      vertex -26 -14 20
    endloop
  endfacet
  facet normal 0 -1 0
    outer loop
      vertex -26 -26 20
      vertex -26 -26 8
      vertex -14 -26 8
    endloop
  endfacet
  facet normal 0 -1 0
    outer loop
      vertex -14 -26 20
      vertex -26 -26 20
      vertex -14 -26 8
    endloop
  endfacet
  facet normal 1 0 0
    outer loop
      vertex -14 -26 20
      vertex -14 -26 8
      vertex -14 -14 8
    endloop
  endfacet
  facet normal 1 0 0
    outer loop
      vertex -14 -14 20
      vertex -14 -26 20
      vertex -14 -14 8
    endloop
  endfacet
  facet normal 0 1 0
    outer loop
      vertex -26 -14 8
      vertex -26 -14 20
      vertex -14 -14 8
    endloop
  endfacet
  facet normal 0 1 0
    outer loop
      vertex -14 -14 8
      vertex -26 -14 20
      vertex -14 -14 20
    endloop
  endfacet
  facet normal 0 0 1
    outer loop
      vertex -26 -14 20
      vertex -26 -26 20
      vertex -14 -26 20
    endloop
  endfacet
  facet normal 0 0 1
    outer loop
      vertex -14 -14 20
      vertex -26 -14 20
      vertex -14 -26 20
    endloop
  endfacet
endsolid OpenSCAD_Model
