solid OpenSCAD_Model
  facet normal -1 0 0
    outer loop
      vertex -28 12 0
      vertex -28 12 8
      vertex -28 28 0
    endloop
  endfacet
  facet normal -1 0 0
    outer loop
      vertex -28 28 0
      vertex -28 12 8
      vertex -28 28 8
    endloop
  endfacet
  facet normal 0 -1 0
    outer loop
      vertex -28 12 8
      vertex -28 12 0
      vertex -12 12 0
    endloop
  endfacet
  facet normal 0 -1 0
    outer loop
      vertex -12 12 8
      vertex -28 12 8
      vertex -12 12 0
    endloop
  endfacet
  facet normal 0 0 -1
    outer loop
      vertex -28 12 0
      vertex -28 28 0
      vertex -12 12 0
    endloop
  endfacet
  facet normal 0 0 -1
    outer loop
      vertex -12 12 0
      vertex -28 28 0
      vertex -12 28 0
    endloop
  endfacet
  facet normal 0 1 0
    outer loop
      vertex -28 28 0
      vertex -28 28 8
      vertex -12 28 0
    endloop
  endfacet
  facet normal 0 1 0
    outer loop
      vertex -12 28 0
      vertex -28 28 8
      vertex -12 28 8
    endloop
  endfacet
  facet normal 0 0 1
    outer loop
      vertex -26 14 8
      vertex -28 12 8
      vertex -12 12 8
    endloop
  endfacet
  facet normal 0 0 1
    outer loop
      vertex -26 26 8
      vertex -28 28 8
      vertex -26 14 8
    endloop
  endfacet
  facet normal 0 0 1
    outer loop
      vertex -14 14 8
      vertex -26 14 8
      vertex -12 12 8
    endloop
  endfacet
  facet normal 0 0 1
    outer loop
      vertex -28 28 8
      vertex -28 12 8
      vertex -26 14 8
    endloop
  endfacet
  facet normal 0 0 1
    outer loop
      vertex -12 28 8
      vertex -28 28 8
      vertex -26 26 8
    endloop
  endfacet
  facet normal 0 0 1
    outer loop
      vertex -12 28 8
      vertex -14 26 8
      vertex -12 12 8
    endloop
  endfacet
  facet normal 0 0 1
    outer loop
      vertex -12 28 8
      vertex -26 26 8
      vertex -14 26 8
    endloop
  endfacet
  facet normal 0 0 1
    outer loop
      vertex -14 26 8
      vertex -14 14 8
      vertex -12 12 8
    endloop
  endfacet
  facet normal 1 0 0
    outer loop
      vertex -12 12 8
      vertex -12 12 0
      vertex -12 28 0
    endloop
  endfacet
  facet normal 1 0 0
    outer loop
      vertex -12 28 8
      vertex -12 12 8
      vertex -12 28 0
    endloop
  endfacet
  facet normal -1 0 0
    outer loop
      vertex -26 14 8
      vertex -26 14 32
      vertex -26 26 8
    endloop
  endfacet
  facet normal -1 0 0
    outer loop
      vertex -26 26 8
      vertex -26 14 32
      vertex -26 26 32
    endloop
  endfacet
  facet normal 0 -1 0
    outer loop
      vertex -26 14 32
      vertex -26 14 8
      vertex -14 14 8
    endloop
  endfacet
  facet normal 0 -1 0
    outer loop
      vertex -14 14 32
      vertex -26 14 32
      vertex -14 14 8
    endloop
  endfacet
  facet normal 1 0 0
    outer loop
      vertex -14 14 32
      vertex -14 14 8
      vertex -14 26 8
    endloop
  endfacet
  facet normal 1 0 0
    outer loop
      vertex -14 26 32
      vertex -14 14 32
      vertex -14 26 8
    endloop
  endfacet
  facet normal 0 1 0
    outer loop
      vertex -26 26 8
      vertex -26 26 32
      vertex -14 26 8
    endloop
  endfacet
  facet normal 0 1 0
    outer loop
      vertex -14 26 8
      vertex -26 26 32
      vertex -14 26 32
    endloop
  endfacet
  facet normal 0 0 1
    outer loop
      vertex -26 26 32
      vertex -26 14 32
      vertex -14 14 32
    endloop
  endfacet
  facet normal 0 0 1
    outer loop
      vertex -14 26 32
      vertex -26 26 32
      vertex -14 14 32
    endloop
  endfacet
  facet normal -1 0 0
    outer loop
      vertex 12 12 0
      vertex 12 12 8
      vertex 12 28 0
    endloop
  endfacet
  facet normal -1 0 0
    outer loop
      vertex 12 28 0
      vertex 12 12 8
      vertex 12 28 8
    endloop
  endfacet
  facet normal 0 -1 0
    outer loop
      vertex 12 12 8
      vertex 12 12 0
      vertex 28 12 0
    endloop
  endfacet
  facet normal 0 -1 0
    outer loop
      vertex 28 12 8
      vertex 12 12 8
      vertex 28 12 0
    endloop
  endfacet
  facet normal 0 0 -1
    outer loop
      vertex 12 12 0
      vertex 12 28 0
      vertex 28 12 0
    endloop
  endfacet
  facet normal 0 0 -1
    outer loop
      vertex 28 12 0
      vertex 12 28 0
      vertex 28 28 0
    endloop
  endfacet
  facet normal 0 1 0
    outer loop
      vertex 12 28 0
      vertex 12 28 8
      vertex 28 28 0
    endloop
  endfacet
  facet normal 0 1 0
    outer loop
      vertex 28 28 0
      vertex 12 28 8
      vertex 28 28 8
    endloop
  endfacet
  facet normal 0 0 1
    outer loop
      vertex 14 14 8
      vertex 12 12 8
      vertex 28 12 8
    endloop
  endfacet
  facet normal 0 0 1
    outer loop
      vertex 14 26 8
      vertex 12 28 8
      vertex 14 14 8
    endloop
  endfacet
  facet normal 0 0 1
    outer loop
      vertex 26 14 8
      vertex 14 14 8
      vertex 28 12 8
    endloop
  endfacet
  facet normal 0 0 1
    outer loop
      vertex 12 28 8
      vertex 12 12 8
      vertex 14 14 8
    endloop
  endfacet
  facet normal 0 0 1
    outer loop
      vertex 28 28 8
      vertex 12 28 8
      vertex 14 26 8
    endloop
  endfacet
  facet normal 0 0 1
    outer loop
      vertex 28 28 8
      vertex 26 26 8
      vertex 28 12 8
    endloop
  endfacet
  facet normal 0 0 1
    outer loop
      vertex 28 28 8
      vertex 14 26 8
      vertex 26 26 8
    endloop
  endfacet
  facet normal 0 0 1
    outer loop
      vertex 26 26 8
      vertex 26 14 8
      vertex 28 12 8
    endloop
  endfacet
  facet normal 1 0 0
    outer loop
      vertex 28 12 8
      vertex 28 12 0
      vertex 28 28 0
    endloop
  endfacet
  facet normal 1 0 0
    outer loop
      vertex 28 28 8
      vertex 28 12 8
      vertex 28 28 0
    endloop
  endfacet
  facet normal -1 0 0
    outer loop
      vertex 14 14 8
      vertex 14 14 32
      vertex 14 26 8
    endloop
  endfacet
  facet normal -1 0 0
    outer loop
      vertex 14 26 8
      vertex 14 14 32
      vertex 14 26 32
    endloop
  endfacet
  facet normal 0 -1 0
    outer loop
      vertex 14 14 32
      vertex 14 14 8
      vertex 26 14 8
    endloop
  endfacet
  facet normal 0 -1 0
    outer loop
      vertex 26 14 32
      vertex 14 14 32
      vertex 26 14 8
    endloop
  endfacet
  facet normal 1 0 0
    outer loop
      vertex 26 14 32
      vertex 26 14 8
      vertex 26 26 8
    endloop
  endfacet
  facet normal 1 0 0
    outer loop
      vertex 26 26 32
      vertex 26 14 32
      vertex 26 26 8
    endloop
  endfacet
  facet normal 0 1 0
    outer loop
      vertex 14 26 8
      vertex 14 26 32
      vertex 26 26 8
    endloop
  endfacet
  facet normal 0 1 0
    outer loop
      vertex 26 26 8
      vertex 14 26 32
      vertex 26 26 32
    endloop
  endfacet
  facet normal 0 0 1
    outer loop
      vertex 14 26 32
      vertex 14 14 32
      vertex 26 14 32
    endloop
  endfacet
  facet normal 0 0 1
    outer loop
      vertex 26 26 32
      vertex 14 26 32
      vertex 26 14 32
    endloop
  endfacet
  facet normal -1 0 0
    outer loop
      vertex 12 -28 0
      vertex 12 -28 8
      vertex 12 -12 0
    endloop
  endfacet
  facet normal -1 0 0
    outer loop
      vertex 12 -12 0
      vertex 12 -28 8
      vertex 12 -12 8
    endloop
  endfacet
  facet normal 0 -1 0
    outer loop
      vertex 12 -28 8
      vertex 12 -28 0
      vertex 28 -28 0
    endloop
  endfacet
  facet normal 0 -1 0
    outer loop
      vertex 28 -28 8
      vertex 12 -28 8
      vertex 28 -28 0
    endloop
  endfacet
  facet normal 0 0 -1
    outer loop
      vertex 12 -28 0
      vertex 12 -12 0
      vertex 28 -28 0
    endloop
  endfacet
  facet normal 0 0 -1
    outer loop
      vertex 28 -28 0
      vertex 12 -12 0
      vertex 28 -12 0
    endloop
  endfacet
  facet normal 0 1 0
    outer loop
      vertex 12 -12 0
      vertex 12 -12 8
      vertex 28 -12 0
    endloop
  endfacet
  facet normal 0 1 0
    outer loop
      vertex 28 -12 0
      vertex 12 -12 8
      vertex 28 -12 8
    endloop
  endfacet
  facet normal 0 0 1
    outer loop
      vertex 14 -26 8
      vertex 12 -28 8
      vertex 28 -28 8
    endloop
  endfacet
  facet normal 0 0 1
    outer loop
      vertex 14 -14 8
      vertex 12 -12 8
      vertex 14 -26 8
    endloop
  endfacet
  facet normal 0 0 1
    outer loop
      vertex 26 -26 8
      vertex 14 -26 8
      vertex 28 -28 8
    endloop
  endfacet
  facet normal 0 0 1
    outer loop
      vertex 12 -12 8
      vertex 12 -28 8
      vertex 14 -26 8
    endloop
  endfacet
  facet normal 0 0 1
    outer loop
      vertex 28 -12 8
      vertex 12 -12 8
      vertex 14 -14 8
    endloop
  endfacet
  facet normal 0 0 1
    outer loop
      vertex 28 -12 8
      vertex 26 -14 8
      vertex 28 -28 8
    endloop
  endfacet
  facet normal 0 0 1
    outer loop
      vertex 28 -12 8
      vertex 14 -14 8
      vertex 26 -14 8
    endloop
  endfacet
  facet normal 0 0 1
    outer loop
      vertex 26 -14 8
      vertex 26 -26 8
      vertex 28 -28 8
    endloop
  endfacet
  facet normal 1 0 0
    outer loop
      vertex 28 -28 8
      vertex 28 -28 0
      vertex 28 -12 0
    endloop
  endfacet
  facet normal 1 0 0
    outer loop
      vertex 28 -12 8
      vertex 28 -28 8
      vertex 28 -12 0
    endloop
  endfacet
  facet normal -0.986394 0 0.164399
    outer loop
      vertex 14 -26 8
      vertex 18 -22 32
      vertex 14 -14 8
    endloop
  endfacet
  facet normal -0.986394 0 0.164399
    outer loop
      vertex 14 -14 8
      vertex 18 -22 32
      vertex 18 -18 32
    endloop
  endfacet
  facet normal 0 -0.986394 0.164399
    outer loop
      vertex 18 -22 32
      vertex 14 -26 8
      vertex 26 -26 8
    endloop
  endfacet
  facet normal 0 -0.986394 0.164399
    outer loop
      vertex 22 -22 32
      vertex 18 -22 32
      vertex 26 -26 8
    endloop
  endfacet
  facet normal 0.986394 0 0.164399
    outer loop
      vertex 22 -18 32
      vertex 22 -22 32
      vertex 26 -26 8
    endloop
  endfacet
  facet normal 0.986394 0 0.164399
    outer loop
      vertex 26 -14 8
      vertex 22 -18 32
      vertex 26 -26 8
    endloop
  endfacet
  facet normal 0 0.986394 0.164399
    outer loop
      vertex 14 -14 8
      vertex 18 -18 32
      vertex 26 -14 8
    endloop
  endfacet
  facet normal 0 0.986394 0.164399
    outer loop
      vertex 26 -14 8
      vertex 18 -18 32
      vertex 22 -18 32
    endloop
  endfacet
  facet normal 0 0 1
    outer loop
      vertex 18 -18 32
      vertex 18 -22 32
      vertex 22 -22 32
    endloop
  endfacet
  facet normal 0 0 1
    outer loop
      vertex 22 -18 32
      vertex 18 -18 32
      vertex 22 -22 32
    endloop
  endfacet
  facet normal -1 0 0
    outer loop
      vertex -28 -28 0
      vertex -28 -28 8
      vertex -28 -12 0
    endloop
  endfacet
  facet normal -1 0 0
    outer loop
      vertex -28 -12 0
      vertex -28 -28 8
      vertex -28 -12 8
    endloop
  endfacet
  facet normal 0 -1 0
    outer loop
      vertex -28 -28 8
      vertex -28 -28 0
      vertex -12 -28 0
    endloop
  endfacet
  facet normal 0 -1 0
    outer loop
      vertex -12 -28 8
      vertex -28 -28 8
      vertex -12 -28 0
    endloop
  endfacet
  facet normal 0 0 -1
    outer loop
      vertex -28 -28 0
      vertex -28 -12 0
      vertex -12 -28 0
    endloop
  endfacet
  facet normal 0 0 -1
    outer loop
      vertex -12 -28 0
      vertex -28 -12 0
      vertex -12 -12 0
    endloop
  endfacet
  facet normal 0 1 0
    outer loop
      vertex -28 -12 0
      vertex -28 -12 8
      vertex -12 -12 0
    endloop
  endfacet
  facet normal 0 1 0
    outer loop
      vertex -12 -12 0
      vertex -28 -12 8
      vertex -12 -12 8
    endloop
  endfacet
  facet normal 0 0 1
    outer loop
      vertex -26 -26 8
      vertex -28 -28 8
      vertex -12 -28 8
    endloop
  endfacet
  facet normal 0 0 1
    outer loop
      vertex -26 -14 8
      vertex -28 -12 8
      vertex -26 -26 8
    endloop
  endfacet
  facet normal 0 0 1
    outer loop
      vertex -14 -26 8
      vertex -26 -26 8
      vertex -12 -28 8
    endloop
  endfacet
  facet normal 0 0 1
    outer loop
      vertex -28 -12 8
      vertex -28 -28 8
      vertex -26 -26 8
    endloop
  endfacet
  facet normal 0 0 1
    outer loop
      vertex -12 -12 8
      vertex -28 -12 8
      vertex -26 -14 8
    endloop
  endfacet
  facet normal 0 0 1
    outer loop
      vertex -12 -12 8
      vertex -14 -14 8
      vertex -12 -28 8
    endloop
  endfacet
  facet normal 0 0 1
    outer loop
      vertex -12 -12 8
      vertex -26 -14 8
      vertex -14 -14 8
    endloop
  endfacet
  facet normal 0 0 1
    outer loop
      vertex -14 -14 8
      vertex -14 -26 8
      vertex -12 -28 8
    endloop
  endfacet
  facet normal 1 0 0
    outer loop
      vertex -12 -28 8
      vertex -12 -28 0
      vertex -12 -12 0
    endloop
  endfacet
  facet normal 1 0 0
    outer loop
      vertex -12 -12 8
      vertex -12 -28 8
      vertex -12 -12 0
    endloop
  endfacet
  facet normal -0.986394 0 0.164399
    outer loop
      vertex -26 -26 8
      vertex -22 -22 32
      vertex -26 -14 8
    endloop
  endfacet
  facet normal -0.986394 0 0.164399
    outer loop
      vertex -26 -14 8
      vertex -22 -22 32
      vertex -22 -18 32
    endloop
  endfacet
  facet normal 0 -0.986394 0.164399
    outer loop
      vertex -22 -22 32
      vertex -26 -26 8
      vertex -14 -26 8
    endloop
  endfacet
  facet normal 0 -0.986394 0.164399
    outer loop
      vertex -18 -22 32
      vertex -22 -22 32
      vertex -14 -26 8
    endloop
  endfacet
  facet normal 0.986394 0 0.164399
    outer loop
      vertex -18 -18 32
      vertex -18 -22 32
      vertex -14 -26 8
    endloop
  endfacet
  facet normal 0.986394 0 0.164399
    outer loop
      vertex -14 -14 8
      vertex -18 -18 32
      vertex -14 -26 8
    endloop
  endfacet
  facet normal 0 0.986394 0.164399
    outer loop
      vertex -26 -14 8
      vertex -22 -18 32
      vertex -14 -14 8
    endloop
  endfacet
  facet normal 0 0.986394 0.164399
    outer loop
      vertex -14 -14 8
      vertex -22 -18 32
      vertex -18 -18 32
    endloop
  endfacet
  facet normal 0 0 1
    outer loop
      vertex -22 -18 32
      vertex -22 -22 32
      vertex -18 -22 32
    endloop
  endfacet
  facet normal 0 0 1
    outer loop
      vertex -18 -18 32
      vertex -22 -18 32
      vertex -18 -22 32
    endloop
  endfacet
endsolid OpenSCAD_Model
