solid OpenSCAD_Model
  facet normal -0.996917 0.0784581 0
    outer loop
      vertex -2 0 0
      vertex -2 0 10
      vertex -1.97538 0.312869 0
    endloop
  endfacet
  facet normal -0.996917 0.0784581 0
    outer loop
      vertex -1.97538 0.312869 0
      vertex -2 0 10
      vertex -1.97538 0.312869 10
    endloop
  endfacet
  facet normal -0.996917 -0.0784581 0
    outer loop
      vertex -2 0 0
      vertex -1.97538 -0.312869 0
      vertex -2 0 10
    endloop
  endfacet
  facet normal -0.996917 -0.0784581 0
    outer loop
      vertex -2 0 10
      vertex -1.97538 -0.312869 0
      vertex -1.97538 -0.312869 10
    endloop
  endfacet
  facet normal -0.979501 -0.0770874 -0.186105
    outer loop
      vertex -1.97538 -0.312869 0
      vertex -2 0 0
      vertex -0.098769 -0.015643 -10
    endloop
  endfacet
  facet normal -0.979502 -0.0770803 -0.186105
    outer loop
      vertex -0.098769 -0.015643 -10
      vertex -2 0 0
      vertex -0.1 0 -10
    endloop
  endfacet
  facet normal -0.979501 0.0770874 -0.186105
    outer loop
      vertex -0.1 0 -10
      vertex -2 0 0
      vertex -1.97538 0.312869 0
    endloop
  endfacet
  facet normal -0.979502 0.0770803 -0.186105
    outer loop
      vertex -0.1 0 -10
      vertex -1.97538 0.312869 0
      vertex -0.098769 0.015643 -10
    endloop
  endfacet
  facet normal -0.955382 0.229368 -0.186105
    outer loop
      vertex -0.098769 0.015643 -10
      vertex -1.97538 0.312869 0
      vertex -1.90211 0.618034 0
    endloop
  endfacet
  facet normal -0.97237 0.233446 0
    outer loop
      vertex -1.97538 0.312869 0
      vertex -1.97538 0.312869 10
      vertex -1.90211 0.618034 0
    endloop
  endfacet
  facet normal -0.97237 0.233446 0
    outer loop
      vertex -1.90211 0.618034 0
      vertex -1.97538 0.312869 10
      vertex -1.90211 0.618034 10
    endloop
  endfacet
  facet normal 0 0 1
    outer loop
      vertex -1.97538 0.312869 10
      vertex -2 0 10
      vertex -1.97538 -0.312869 10
    endloop
  endfacet
  facet normal 0 0 1
    outer loop
      vertex -1.78201 -0.907981 10
      vertex -1.97538 0.312869 10
      vertex -1.90211 -0.618034 10
    endloop
  endfacet
  facet normal 0 0 1
    outer loop
      vertex -1.90211 -0.618034 10
      vertex -1.97538 0.312869 10
      vertex -1.97538 -0.312869 10
    endloop
  endfacet
  facet normal 0 0 1
    outer loop
      vertex -1.61803 -1.17557 10
      vertex -1.97538 0.312869 10
      vertex -1.78201 -0.907981 10
    endloop
  endfacet
  facet normal 0 0 1
    outer loop
      vertex -1.41421 -1.41421 10
      vertex -1.97538 0.312869 10
      vertex -1.61803 -1.17557 10
    endloop
  endfacet
  facet normal 0 0 1
    outer loop
      vertex -1.17557 -1.61803 10
      vertex -1.97538 0.312869 10
      vertex -1.41421 -1.41421 10
    endloop
  endfacet
  facet normal 0 0 1
    outer loop
      vertex -0.907981 -1.78201 10
      vertex -1.97538 0.312869 10
      vertex -1.17557 -1.61803 10
    endloop
  endfacet
  facet normal 0 0 1
    outer loop
      vertex -0.618034 -1.90211 10
      vertex -1.97538 0.312869 10
      vertex -0.907981 -1.78201 10
    endloop
  endfacet
  facet normal 0 0 1
    outer loop
      vertex -0.312869 -1.97538 10
      vertex -1.97538 0.312869 10
      vertex -0.618034 -1.90211 10
    endloop
  endfacet
  facet normal 0 0 1
    outer loop
      vertex 0 -2 10
      vertex -1.97538 0.312869 10
      vertex -0.312869 -1.97538 10
    endloop
  endfacet
  facet normal 0 0 1
    outer loop
      vertex 0.312869 -1.97538 10
      vertex -1.97538 0.312869 10
      vertex 0 -2 10
    endloop
  endfacet
  facet normal 0 0 1
    outer loop
      vertex 0.618034 -1.90211 10
      vertex -1.97538 0.312869 10
      vertex 0.312869 -1.97538 10
    endloop
  endfacet
  facet normal 0 0 1
    outer loop
      vertex 0.907981 -1.78201 10
      vertex -1.97538 0.312869 10
      vertex 0.618034 -1.90211 10
    endloop
  endfacet
  facet normal 0 0 1
    outer loop
      vertex 1.17557 -1.61803 10
      vertex -1.97538 0.312869 10
      vertex 0.907981 -1.78201 10
    endloop
  endfacet
  facet normal 0 0 1
    outer loop
      vertex 1.41421 -1.41421 10
      vertex -1.97538 0.312869 10
      vertex 1.17557 -1.61803 10
    endloop
  endfacet
  facet normal 0 0 1
    outer loop
      vertex 1.61803 -1.17557 10
      vertex -1.97538 0.312869 10
      vertex 1.41421 -1.41421 10
    endloop
  endfacet
  facet normal 0 0 1
    outer loop
      vertex 1.78201 -0.907981 10
      vertex -1.97538 0.312869 10
      vertex 1.61803 -1.17557 10
    endloop
  endfacet
  facet normal 0 0 1
    outer loop
      vertex 1.90211 -0.618034 10
      vertex -1.97538 0.312869 10
      vertex 1.78201 -0.907981 10
    endloop
  endfacet
  facet normal 0 0 1
    outer loop
      vertex 1.97538 -0.312869 10
      vertex -1.97538 0.312869 10
      vertex 1.90211 -0.618034 10
    endloop
  endfacet
  facet normal 0 0 1
    outer loop
      vertex 2 0 10
      vertex -1.97538 0.312869 10
      vertex 1.97538 -0.312869 10
    endloop
  endfacet
  facet normal 0 0 1
    outer loop
      vertex 1.97538 0.312869 10
      vertex -1.97538 0.312869 10
      vertex 2 0 10
    endloop
  endfacet
  facet normal 0 0 1
    outer loop
      vertex 1.90211 0.618034 10
      vertex -1.97538 0.312869 10
      vertex 1.97538 0.312869 10
    endloop
  endfacet
  facet normal 0 0 1
    outer loop
      vertex 1.78201 0.907981 10
      vertex -1.97538 0.312869 10
      vertex 1.90211 0.618034 10
    endloop
  endfacet
  facet normal 0 0 1
    outer loop
      vertex 1.61803 1.17557 10
      vertex -1.97538 0.312869 10
      vertex 1.78201 0.907981 10
    endloop
  endfacet
  facet normal 0 0 1
    outer loop
      vertex 1.41421 1.41421 10
      vertex -1.97538 0.312869 10
      vertex 1.61803 1.17557 10
    endloop
  endfacet
  facet normal 0 0 1
    outer loop
      vertex 1.17557 1.61803 10
      vertex -1.97538 0.312869 10
      vertex 1.41421 1.41421 10
    endloop
  endfacet
  facet normal 0 0 1
    outer loop
      vertex 0.907981 1.78201 10
      vertex -1.97538 0.312869 10
      vertex 1.17557 1.61803 10
    endloop
  endfacet
  facet normal 0 0 1
    outer loop
      vertex 0.618034 1.90211 10
      vertex -1.97538 0.312869 10
      vertex 0.907981 1.78201 10
    endloop
  endfacet
  facet normal 0 0 1
    outer loop
      vertex 0.312869 1.97538 10
      vertex -1.97538 0.312869 10
      vertex 0.618034 1.90211 10
    endloop
  endfacet
  facet normal 0 0 1
    outer loop
      vertex 0 2 10
      vertex -1.97538 0.312869 10
      vertex 0.312869 1.97538 10
    endloop
  endfacet
  facet normal 0 0 1
    outer loop
      vertex -0.312869 1.97538 10
      vertex -1.97538 0.312869 10
      vertex 0 2 10
    endloop
  endfacet
  facet normal 0 0 1
    outer loop
      vertex -0.618034 1.90211 10
      vertex -1.97538 0.312869 10
      vertex -0.312869 1.97538 10
    endloop
  endfacet
  facet normal 0 0 1
    outer loop
      vertex -0.907981 1.78201 10
      vertex -1.97538 0.312869 10
      vertex -0.618034 1.90211 10
    endloop
  endfacet
  facet normal 0 0 1
    outer loop
      vertex -1.17557 1.61803 10
      vertex -1.97538 0.312869 10
      vertex -0.907981 1.78201 10
    endloop
  endfacet
  facet normal 0 0 1
    outer loop
      vertex -1.41421 1.41421 10
      vertex -1.97538 0.312869 10
      vertex -1.17557 1.61803 10
    endloop
  endfacet
  facet normal 0 0 1
    outer loop
      vertex -1.61803 1.17557 10
      vertex -1.97538 0.312869 10
      vertex -1.41421 1.41421 10
    endloop
  endfacet
  facet normal 0 0 1
    outer loop
      vertex -1.78201 0.907981 10
      vertex -1.97538 0.312869 10
      vertex -1.61803 1.17557 10
    endloop
  endfacet
  facet normal 0 0 1
    outer loop
      vertex -1.90211 0.618034 10
      vertex -1.97538 0.312869 10
      vertex -1.78201 0.907981 10
    endloop
  endfacet
  facet normal -0.97237 -0.233446 0
    outer loop
      vertex -1.97538 -0.312869 0
      vertex -1.90211 -0.618034 0
      vertex -1.97538 -0.312869 10
    endloop
  endfacet
  facet normal -0.97237 -0.233446 0
    outer loop
      vertex -1.97538 -0.312869 10
      vertex -1.90211 -0.618034 0
      vertex -1.90211 -0.618034 10
    endloop
  endfacet
  facet normal -0.955382 -0.229368 -0.186105
    outer loop
      vertex -1.90211 -0.618034 0
      vertex -1.97538 -0.312869 0
      vertex -0.095106 -0.030902 -10
    endloop
  endfacet
  facet normal -0.955388 -0.229346 -0.186106
    outer loop
      vertex -0.095106 -0.030902 -10
      vertex -1.97538 -0.312869 0
      vertex -0.098769 -0.015643 -10
    endloop
  endfacet
  facet normal 0 0 -1
    outer loop
      vertex -0.1 0 -10
      vertex -0.098769 0.015643 -10
      vertex -0.098769 -0.015643 -10
    endloop
  endfacet
  facet normal 0 0 -1
    outer loop
      vertex -0.098769 -0.015643 -10
      vertex -0.098769 0.015643 -10
      vertex -0.095106 0.030902 -10
    endloop
  endfacet
  facet normal 0 0 -1
    outer loop
      vertex -0.098769 -0.015643 -10
      vertex -0.095106 0.030902 -10
      vertex -0.089101 0.045399 -10
    endloop
  endfacet
  facet normal 0 0 -1
    outer loop
      vertex -0.098769 -0.015643 -10
      vertex -0.089101 0.045399 -10
      vertex -0.080902 0.058779 -10
    endloop
  endfacet
  facet normal 0 0 -1
    outer loop
      vertex -0.098769 -0.015643 -10
      vertex -0.080902 0.058779 -10
      vertex -0.070711 0.070711 -10
    endloop
  endfacet
  facet normal 0 0 -1
    outer loop
      vertex -0.098769 -0.015643 -10
      vertex -0.070711 0.070711 -10
      vertex -0.058779 0.080902 -10
    endloop
  endfacet
  facet normal 0 0 -1
    outer loop
      vertex -0.098769 -0.015643 -10
      vertex -0.058779 0.080902 -10
      vertex -0.045399 0.089101 -10
    endloop
  endfacet
  facet normal 0 0 -1
    outer loop
      vertex -0.098769 -0.015643 -10
      vertex -0.045399 0.089101 -10
      vertex -0.030902 0.095106 -10
    endloop
  endfacet
  facet normal 0 0 -1
    outer loop
      vertex -0.098769 -0.015643 -10
      vertex -0.030902 0.095106 -10
      vertex -0.015643 0.098769 -10
    endloop
  endfacet
  facet normal 0 0 -1
    outer loop
      vertex -0.098769 -0.015643 -10
      vertex -0.015643 0.098769 -10
      vertex 0 0.1 -10
    endloop
  endfacet
  facet normal 0 0 -1
    outer loop
      vertex -0.098769 -0.015643 -10
      vertex 0 0.1 -10
      vertex 0.015643 0.098769 -10
    endloop
  endfacet
  facet normal 0 0 -1
    outer loop
      vertex -0.098769 -0.015643 -10
      vertex 0.015643 0.098769 -10
      vertex 0.030902 0.095106 -10
    endloop
  endfacet
  facet normal 0 0 -1
    outer loop
      vertex -0.098769 -0.015643 -10
      vertex 0.030902 0.095106 -10
      vertex 0.045399 0.089101 -10
    endloop
  endfacet
  facet normal 0 0 -1
    outer loop
      vertex -0.098769 -0.015643 -10
      vertex 0.045399 0.089101 -10
      vertex 0.058779 0.080902 -10
    endloop
  endfacet
  facet normal 0 0 -1
    outer loop
      vertex -0.098769 -0.015643 -10
      vertex 0.058779 0.080902 -10
      vertex 0.070711 0.070711 -10
    endloop
  endfacet
  facet normal 0 0 -1
    outer loop
      vertex -0.098769 -0.015643 -10
      vertex 0.070711 0.070711 -10
      vertex 0.080902 0.058779 -10
    endloop
  endfacet
  facet normal 0 0 -1
    outer loop
      vertex -0.098769 -0.015643 -10
      vertex 0.080902 0.058779 -10
      vertex 0.089101 0.045399 -10
    endloop
  endfacet
  facet normal 0 0 -1
    outer loop
      vertex -0.098769 -0.015643 -10
      vertex 0.089101 0.045399 -10
      vertex 0.095106 0.030902 -10
    endloop
  endfacet
  facet normal 0 0 -1
    outer loop
      vertex -0.098769 -0.015643 -10
      vertex 0.095106 0.030902 -10
      vertex 0.098769 0.015643 -10
    endloop
  endfacet
  facet normal 0 0 -1
    outer loop
      vertex -0.098769 -0.015643 -10
      vertex 0.098769 0.015643 -10
      vertex 0.1 0 -10
    endloop
  endfacet
  facet normal 0 0 -1
    outer loop
      vertex -0.098769 -0.015643 -10
      vertex 0.1 0 -10
      vertex 0.098769 -0.015643 -10
    endloop
  endfacet
  facet normal 0 0 -1
    outer loop
      vertex -0.098769 -0.015643 -10
      vertex 0.098769 -0.015643 -10
      vertex 0.095106 -0.030902 -10
    endloop
  endfacet
  facet normal 0 0 -1
    outer loop
      vertex -0.098769 -0.015643 -10
      vertex 0.095106 -0.030902 -10
      vertex 0.089101 -0.045399 -10
    endloop
  endfacet
  facet normal 0 0 -1
    outer loop
      vertex -0.098769 -0.015643 -10
      vertex 0.089101 -0.045399 -10
      vertex 0.080902 -0.058779 -10
    endloop
  endfacet
  facet normal 0 0 -1
    outer loop
      vertex -0.098769 -0.015643 -10
      vertex 0.080902 -0.058779 -10
      vertex 0.070711 -0.070711 -10
    endloop
  endfacet
  facet normal 0 0 -1
    outer loop
      vertex -0.098769 -0.015643 -10
      vertex 0.070711 -0.070711 -10
      vertex 0.058779 -0.080902 -10
    endloop
  endfacet
  facet normal 0 0 -1
    outer loop
      vertex -0.098769 -0.015643 -10
      vertex 0.058779 -0.080902 -10
      vertex 0.045399 -0.089101 -10
    endloop
  endfacet
  facet normal 0 0 -1
    outer loop
      vertex -0.098769 -0.015643 -10
      vertex 0.045399 -0.089101 -10
      vertex 0.030902 -0.095106 -10
    endloop
  endfacet
  facet normal 0 0 -1
    outer loop
      vertex -0.098769 -0.015643 -10
      vertex 0.030902 -0.095106 -10
      vertex 0.015643 -0.098769 -10
    endloop
  endfacet
  facet normal 0 0 -1
    outer loop
      vertex -0.098769 -0.015643 -10
      vertex 0.015643 -0.098769 -10
      vertex 0 -0.1 -10
    endloop
  endfacet
  facet normal 0 0 -1
    outer loop
      vertex -0.098769 -0.015643 -10
      vertex 0 -0.1 -10
      vertex -0.015643 -0.098769 -10
    endloop
  endfacet
  facet normal 0 0 -1
    outer loop
      vertex -0.098769 -0.015643 -10
      vertex -0.015643 -0.098769 -10
      vertex -0.030902 -0.095106 -10
    endloop
  endfacet
  facet normal 0 0 -1
    outer loop
      vertex -0.098769 -0.015643 -10
      vertex -0.030902 -0.095106 -10
      vertex -0.045399 -0.089101 -10
    endloop
  endfacet
  facet normal 0 0 -1
    outer loop
      vertex -0.098769 -0.015643 -10
      vertex -0.045399 -0.089101 -10
      vertex -0.058779 -0.080902 -10
    endloop
  endfacet
  facet normal 0 0 -1
    outer loop
      vertex -0.098769 -0.015643 -10
      vertex -0.058779 -0.080902 -10
      vertex -0.070711 -0.070711 -10
    endloop
  endfacet
  facet normal 0 0 -1
    outer loop
      vertex -0.098769 -0.015643 -10
      vertex -0.070711 -0.070711 -10
      vertex -0.080902 -0.058779 -10
    endloop
  endfacet
  facet normal 0 0 -1
    outer loop
      vertex -0.098769 -0.015643 -10
      vertex -0.080902 -0.058779 -10
      vertex -0.089101 -0.045399 -10
    endloop
  endfacet
  facet normal 0 0 -1
    outer loop
      vertex -0.098769 -0.015643 -10
      vertex -0.089101 -0.045399 -10
      vertex -0.095106 -0.030902 -10
    endloop
  endfacet
  facet normal -0.955388 0.229346 -0.186105
    outer loop
      vertex -0.098769 0.015643 -10
      vertex -1.90211 0.618034 0
      vertex -0.095106 0.030902 -10
    endloop
  endfacet
  facet normal -0.907739 0.375998 -0.186105
    outer loop
      vertex -0.095106 0.030902 -10
      vertex -1.90211 0.618034 0
      vertex -1.78201 0.907981 0
    endloop
  endfacet
  facet normal -0.92388 0.382683 0
    outer loop
      vertex -1.90211 0.618034 0
      vertex -1.90211 0.618034 10
      vertex -1.78201 0.907981 0
    endloop
  endfacet
  facet normal -0.92388 0.382683 0
    outer loop
      vertex -1.78201 0.907981 0
      vertex -1.90211 0.618034 10
      vertex -1.78201 0.907981 10
    endloop
  endfacet
  facet normal -0.852641 0.522498 0
    outer loop
      vertex -1.78201 0.907981 0
      vertex -1.78201 0.907981 10
      vertex -1.61803 1.17557 0
    endloop
  endfacet
  facet normal -0.852641 0.522498 0
    outer loop
      vertex -1.61803 1.17557 0
      vertex -1.78201 0.907981 10
      vertex -1.61803 1.17557 10
    endloop
  endfacet
  facet normal -0.760407 0.649447 0
    outer loop
      vertex -1.61803 1.17557 0
      vertex -1.61803 1.17557 10
      vertex -1.41421 1.41421 0
    endloop
  endfacet
  facet normal -0.760407 0.649447 0
    outer loop
      vertex -1.41421 1.41421 0
      vertex -1.61803 1.17557 10
      vertex -1.41421 1.41421 10
    endloop
  endfacet
  facet normal -0.649447 0.760407 0
    outer loop
      vertex -1.41421 1.41421 0
      vertex -1.41421 1.41421 10
      vertex -1.17557 1.61803 0
    endloop
  endfacet
  facet normal -0.649447 0.760407 0
    outer loop
      vertex -1.17557 1.61803 0
      vertex -1.41421 1.41421 10
      vertex -1.17557 1.61803 10
    endloop
  endfacet
  facet normal -0.522498 0.852641 0
    outer loop
      vertex -1.17557 1.61803 0
      vertex -1.17557 1.61803 10
      vertex -0.907981 1.78201 0
    endloop
  endfacet
  facet normal -0.522498 0.852641 0
    outer loop
      vertex -0.907981 1.78201 0
      vertex -1.17557 1.61803 10
      vertex -0.907981 1.78201 10
    endloop
  endfacet
  facet normal -0.382683 0.92388 0
    outer loop
      vertex -0.907981 1.78201 0
      vertex -0.907981 1.78201 10
      vertex -0.618034 1.90211 0
    endloop
  endfacet
  facet normal -0.382683 0.92388 0
    outer loop
      vertex -0.618034 1.90211 0
      vertex -0.907981 1.78201 10
      vertex -0.618034 1.90211 10
    endloop
  endfacet
  facet normal -0.233446 0.97237 0
    outer loop
      vertex -0.618034 1.90211 0
      vertex -0.618034 1.90211 10
      vertex -0.312869 1.97538 0
    endloop
  endfacet
  facet normal -0.233446 0.97237 0
    outer loop
      vertex -0.312869 1.97538 0
      vertex -0.618034 1.90211 10
      vertex -0.312869 1.97538 10
    endloop
  endfacet
  facet normal -0.0784581 0.996917 0
    outer loop
      vertex -0.312869 1.97538 0
      vertex -0.312869 1.97538 10
      vertex 0 2 0
    endloop
  endfacet
  facet normal -0.0784581 0.996917 0
    outer loop
      vertex 0 2 0
      vertex -0.312869 1.97538 10
      vertex 0 2 10
    endloop
  endfacet
  facet normal 0.0784581 0.996917 0
    outer loop
      vertex 0 2 0
      vertex 0 2 10
      vertex 0.312869 1.97538 0
    endloop
  endfacet
  facet normal 0.0784581 0.996917 0
    outer loop
      vertex 0.312869 1.97538 0
      vertex 0 2 10
      vertex 0.312869 1.97538 10
    endloop
  endfacet
  facet normal 0.233446 0.97237 0
    outer loop
      vertex 0.312869 1.97538 0
      vertex 0.312869 1.97538 10
      vertex 0.618034 1.90211 0
    endloop
  endfacet
  facet normal 0.233446 0.97237 0
    outer loop
      vertex 0.618034 1.90211 0
      vertex 0.312869 1.97538 10
      vertex 0.618034 1.90211 10
    endloop
  endfacet
  facet normal 0.382683 0.92388 0
    outer loop
      vertex 0.618034 1.90211 0
      vertex 0.618034 1.90211 10
      vertex 0.907981 1.78201 0
    endloop
  endfacet
  facet normal 0.382683 0.92388 0
    outer loop
      vertex 0.907981 1.78201 0
      vertex 0.618034 1.90211 10
      vertex 0.907981 1.78201 10
    endloop
  endfacet
  facet normal 0.522498 0.852641 0
    outer loop
      vertex 0.907981 1.78201 0
      vertex 0.907981 1.78201 10
      vertex 1.17557 1.61803 0
    endloop
  endfacet
  facet normal 0.522498 0.852641 0
    outer loop
      vertex 1.17557 1.61803 0
      vertex 0.907981 1.78201 10
      vertex 1.17557 1.61803 10
    endloop
  endfacet
  facet normal 0.649447 0.760407 0
    outer loop
      vertex 1.17557 1.61803 0
      vertex 1.17557 1.61803 10
      vertex 1.41421 1.41421 0
    endloop
  endfacet
  facet normal 0.649447 0.760407 0
    outer loop
      vertex 1.41421 1.41421 0
      vertex 1.17557 1.61803 10
      vertex 1.41421 1.41421 10
    endloop
  endfacet
  facet normal 0.760407 0.649447 0
    outer loop
      vertex 1.61803 1.17557 0
      vertex 1.41421 1.41421 0
      vertex 1.41421 1.41421 10
    endloop
  endfacet
  facet normal 0.760407 0.649447 0
    outer loop
      vertex 1.61803 1.17557 10
      vertex 1.61803 1.17557 0
      vertex 1.41421 1.41421 10
    endloop
  endfacet
  facet normal 0.852641 0.522498 0
    outer loop
      vertex 1.78201 0.907981 0
      vertex 1.61803 1.17557 0
      vertex 1.61803 1.17557 10
    endloop
  endfacet
  facet normal 0.852641 0.522498 0
    outer loop
      vertex 1.78201 0.907981 10
      vertex 1.78201 0.907981 0
      vertex 1.61803 1.17557 10
    endloop
  endfacet
  facet normal 0.92388 0.382683 0
    outer loop
      vertex 1.90211 0.618034 0
      vertex 1.78201 0.907981 0
      vertex 1.78201 0.907981 10
    endloop
  endfacet
  facet normal 0.92388 0.382683 0
    outer loop
      vertex 1.90211 0.618034 10
      vertex 1.90211 0.618034 0
      vertex 1.78201 0.907981 10
    endloop
  endfacet
  facet normal 0.97237 0.233446 0
    outer loop
      vertex 1.97538 0.312869 0
      vertex 1.90211 0.618034 0
      vertex 1.90211 0.618034 10
    endloop
  endfacet
  facet normal 0.97237 0.233446 0
    outer loop
      vertex 1.97538 0.312869 10
      vertex 1.97538 0.312869 0
      vertex 1.90211 0.618034 10
    endloop
  endfacet
  facet normal 0.996917 0.0784581 0
    outer loop
      vertex 2 0 0
      vertex 1.97538 0.312869 0
      vertex 1.97538 0.312869 10
    endloop
  endfacet
  facet normal 0.996917 0.0784581 0
    outer loop
      vertex 2 0 10
      vertex 2 0 0
      vertex 1.97538 0.312869 10
    endloop
  endfacet
  facet normal 0.996917 -0.0784581 0
    outer loop
      vertex 1.97538 -0.312869 10
      vertex 1.97538 -0.312869 0
      vertex 2 0 0
    endloop
  endfacet
  facet normal 0.996917 -0.0784581 0
    outer loop
      vertex 2 0 10
      vertex 1.97538 -0.312869 10
      vertex 2 0 0
    endloop
  endfacet
  facet normal 0.97237 -0.233446 0
    outer loop
      vertex 1.90211 -0.618034 10
      vertex 1.90211 -0.618034 0
      vertex 1.97538 -0.312869 0
    endloop
  endfacet
  facet normal 0.97237 -0.233446 0
    outer loop
      vertex 1.97538 -0.312869 10
      vertex 1.90211 -0.618034 10
      vertex 1.97538 -0.312869 0
    endloop
  endfacet
  facet normal 0.92388 -0.382683 0
    outer loop
      vertex 1.78201 -0.907981 10
      vertex 1.78201 -0.907981 0
      vertex 1.90211 -0.618034 0
    endloop
  endfacet
  facet normal 0.92388 -0.382683 0
    outer loop
      vertex 1.90211 -0.618034 10
      vertex 1.78201 -0.907981 10
      vertex 1.90211 -0.618034 0
    endloop
  endfacet
  facet normal 0.852641 -0.522498 0
    outer loop
      vertex 1.61803 -1.17557 10
      vertex 1.61803 -1.17557 0
      vertex 1.78201 -0.907981 0
    endloop
  endfacet
  facet normal 0.852641 -0.522498 0
    outer loop
      vertex 1.78201 -0.907981 10
      vertex 1.61803 -1.17557 10
      vertex 1.78201 -0.907981 0
    endloop
  endfacet
  facet normal 0.760407 -0.649447 0
    outer loop
      vertex 1.41421 -1.41421 10
      vertex 1.41421 -1.41421 0
      vertex 1.61803 -1.17557 0
    endloop
  endfacet
  facet normal 0.760407 -0.649447 0
    outer loop
      vertex 1.61803 -1.17557 10
      vertex 1.41421 -1.41421 10
      vertex 1.61803 -1.17557 0
    endloop
  endfacet
  facet normal 0.649447 -0.760407 0
    outer loop
      vertex 1.17557 -1.61803 10
      vertex 1.17557 -1.61803 0
      vertex 1.41421 -1.41421 0
    endloop
  endfacet
  facet normal 0.649447 -0.760407 0
    outer loop
      vertex 1.41421 -1.41421 10
      vertex 1.17557 -1.61803 10
      vertex 1.41421 -1.41421 0
    endloop
  endfacet
  facet normal 0.522498 -0.852641 0
    outer loop
      vertex 0.907981 -1.78201 10
      vertex 0.907981 -1.78201 0
      vertex 1.17557 -1.61803 0
    endloop
  endfacet
  facet normal 0.522498 -0.852641 0
    outer loop
      vertex 1.17557 -1.61803 10
      vertex 0.907981 -1.78201 10
      vertex 1.17557 -1.61803 0
    endloop
  endfacet
  facet normal 0.382683 -0.92388 0
    outer loop
      vertex 0.618034 -1.90211 10
      vertex 0.618034 -1.90211 0
      vertex 0.907981 -1.78201 0
    endloop
  endfacet
  facet normal 0.382683 -0.92388 0
    outer loop
      vertex 0.907981 -1.78201 10
      vertex 0.618034 -1.90211 10
      vertex 0.907981 -1.78201 0
    endloop
  endfacet
  facet normal 0.233446 -0.97237 0
    outer loop
      vertex 0.312869 -1.97538 10
      vertex 0.312869 -1.97538 0
      vertex 0.618034 -1.90211 0
    endloop
  endfacet
  facet normal 0.233446 -0.97237 0
    outer loop
      vertex 0.618034 -1.90211 10
      vertex 0.312869 -1.97538 10
      vertex 0.618034 -1.90211 0
    endloop
  endfacet
  facet normal 0.0784581 -0.996917 0
    outer loop
      vertex 0 -2 10
      vertex 0 -2 0
      vertex 0.312869 -1.97538 0
    endloop
  endfacet
  facet normal 0.0784581 -0.996917 0
    outer loop
      vertex 0.312869 -1.97538 10
      vertex 0 -2 10
      vertex 0.312869 -1.97538 0
    endloop
  endfacet
  facet normal -0.0784581 -0.996917 0
    outer loop
      vertex -0.312869 -1.97538 10
      vertex -0.312869 -1.97538 0
      vertex 0 -2 0
    endloop
  endfacet
  facet normal -0.0784581 -0.996917 0
    outer loop
      vertex 0 -2 10
      vertex -0.312869 -1.97538 10
      vertex 0 -2 0
    endloop
  endfacet
  facet normal -0.233446 -0.97237 0
    outer loop
      vertex -0.618034 -1.90211 10
      vertex -0.618034 -1.90211 0
      vertex -0.312869 -1.97538 0
    endloop
  endfacet
  facet normal -0.233446 -0.97237 0
    outer loop
      vertex -0.312869 -1.97538 10
      vertex -0.618034 -1.90211 10
      vertex -0.312869 -1.97538 0
    endloop
  endfacet
  facet normal -0.382683 -0.92388 0
    outer loop
      vertex -0.907981 -1.78201 10
      vertex -0.907981 -1.78201 0
      vertex -0.618034 -1.90211 0
    endloop
  endfacet
  facet normal -0.382683 -0.92388 0
    outer loop
      vertex -0.618034 -1.90211 10
      vertex -0.907981 -1.78201 10
      vertex -0.618034 -1.90211 0
    endloop
  endfacet
  facet normal -0.522498 -0.852641 0
    outer loop
      vertex -1.17557 -1.61803 10
      vertex -1.17557 -1.61803 0
      vertex -0.907981 -1.78201 0
    endloop
  endfacet
  facet normal -0.522498 -0.852641 0
    outer loop
      vertex -0.907981 -1.78201 10
      vertex -1.17557 -1.61803 10
      vertex -0.907981 -1.78201 0
    endloop
  endfacet
  facet normal -0.649447 -0.760407 0
    outer loop
      vertex -1.41421 -1.41421 10
      vertex -1.41421 -1.41421 0
      vertex -1.17557 -1.61803 0
    endloop
  endfacet
  facet normal -0.649447 -0.760407 0
    outer loop
      vertex -1.17557 -1.61803 10
      vertex -1.41421 -1.41421 10
      vertex -1.17557 -1.61803 0
    endloop
  endfacet
  facet normal -0.760407 -0.649447 0
    outer loop
      vertex -1.61803 -1.17557 0
      vertex -1.41421 -1.41421 0
      vertex -1.61803 -1.17557 10
    endloop
  endfacet
  facet normal -0.760407 -0.649447 0
    outer loop
      vertex -1.61803 -1.17557 10
      vertex -1.41421 -1.41421 0
      vertex -1.41421 -1.41421 10
    endloop
  endfacet
  facet normal -0.852641 -0.522498 0
    outer loop
      vertex -1.78201 -0.907981 0
      vertex -1.61803 -1.17557 0
      vertex -1.78201 -0.907981 10
    endloop
  endfacet
  facet normal -0.852641 -0.522498 0
    outer loop
      vertex -1.78201 -0.907981 10
      vertex -1.61803 -1.17557 0
      vertex -1.61803 -1.17557 10
    endloop
  endfacet
  facet normal -0.92388 -0.382683 0
    outer loop
      vertex -1.90211 -0.618034 0
      vertex -1.78201 -0.907981 0
      vertex -1.90211 -0.618034 10
    endloop
  endfacet
  facet normal -0.92388 -0.382683 0
    outer loop
      vertex -1.90211 -0.618034 10
      vertex -1.78201 -0.907981 0
      vertex -1.78201 -0.907981 10
    endloop
  endfacet
  facet normal -0.907739 -0.375998 -0.186105
    outer loop
      vertex -1.78201 -0.907981 0
      vertex -1.90211 -0.618034 0
      vertex -0.089101 -0.045399 -10
    endloop
  endfacet
  facet normal -0.907736 -0.376006 -0.186105
    outer loop
      vertex -0.089101 -0.045399 -10
      vertex -1.90211 -0.618034 0
      vertex -0.095106 -0.030902 -10
    endloop
  endfacet
  facet normal -0.837752 -0.513358 -0.186105
    outer loop
      vertex -0.080902 -0.058779 -10
      vertex -1.78201 -0.907981 0
      vertex -0.089101 -0.045399 -10
    endloop
  endfacet
  facet normal -0.837745 -0.51337 -0.186105
    outer loop
      vertex -1.61803 -1.17557 0
      vertex -1.78201 -0.907981 0
      vertex -0.080902 -0.058779 -10
    endloop
  endfacet
  facet normal -0.747118 -0.638106 -0.186105
    outer loop
      vertex -0.070711 -0.070711 -10
      vertex -1.61803 -1.17557 0
      vertex -0.080902 -0.058779 -10
    endloop
  endfacet
  facet normal -0.747122 -0.638101 -0.186105
    outer loop
      vertex -1.41421 -1.41421 0
      vertex -1.61803 -1.17557 0
      vertex -0.070711 -0.070711 -10
    endloop
  endfacet
  facet normal -0.638106 -0.747118 -0.186105
    outer loop
      vertex -0.058779 -0.080902 -10
      vertex -1.41421 -1.41421 0
      vertex -0.070711 -0.070711 -10
    endloop
  endfacet
  facet normal -0.638101 -0.747122 -0.186105
    outer loop
      vertex -1.17557 -1.61803 0
      vertex -1.41421 -1.41421 0
      vertex -0.058779 -0.080902 -10
    endloop
  endfacet
  facet normal -0.513358 -0.837752 -0.186105
    outer loop
      vertex -0.045399 -0.089101 -10
      vertex -1.17557 -1.61803 0
      vertex -0.058779 -0.080902 -10
    endloop
  endfacet
  facet normal -0.51337 -0.837745 -0.186105
    outer loop
      vertex -0.907981 -1.78201 0
      vertex -1.17557 -1.61803 0
      vertex -0.045399 -0.089101 -10
    endloop
  endfacet
  facet normal -0.376006 -0.907736 -0.186105
    outer loop
      vertex -0.030902 -0.095106 -10
      vertex -0.907981 -1.78201 0
      vertex -0.045399 -0.089101 -10
    endloop
  endfacet
  facet normal -0.375998 -0.907739 -0.186105
    outer loop
      vertex -0.618034 -1.90211 0
      vertex -0.907981 -1.78201 0
      vertex -0.030902 -0.095106 -10
    endloop
  endfacet
  facet normal -0.229346 -0.955388 -0.186105
    outer loop
      vertex -0.015643 -0.098769 -10
      vertex -0.618034 -1.90211 0
      vertex -0.030902 -0.095106 -10
    endloop
  endfacet
  facet normal -0.229368 -0.955382 -0.186105
    outer loop
      vertex -0.312869 -1.97538 0
      vertex -0.618034 -1.90211 0
      vertex -0.015643 -0.098769 -10
    endloop
  endfacet
  facet normal -0.0770803 -0.979502 -0.186105
    outer loop
      vertex 0 -0.1 -10
      vertex -0.312869 -1.97538 0
      vertex -0.015643 -0.098769 -10
    endloop
  endfacet
  facet normal -0.0770874 -0.979501 -0.186105
    outer loop
      vertex 0 -2 0
      vertex -0.312869 -1.97538 0
      vertex 0 -0.1 -10
    endloop
  endfacet
  facet normal 0.0770803 -0.979502 -0.186105
    outer loop
      vertex 0.015643 -0.098769 -10
      vertex 0 -2 0
      vertex 0 -0.1 -10
    endloop
  endfacet
  facet normal 0.0770874 -0.979501 -0.186105
    outer loop
      vertex 0.312869 -1.97538 0
      vertex 0 -2 0
      vertex 0.015643 -0.098769 -10
    endloop
  endfacet
  facet normal 0.229346 -0.955388 -0.186106
    outer loop
      vertex 0.312869 -1.97538 0
      vertex 0.015643 -0.098769 -10
      vertex 0.030902 -0.095106 -10
    endloop
  endfacet
  facet normal 0.229368 -0.955382 -0.186105
    outer loop
      vertex 0.312869 -1.97538 0
      vertex 0.030902 -0.095106 -10
      vertex 0.618034 -1.90211 0
    endloop
  endfacet
  facet normal 0.376006 -0.907736 -0.186105
    outer loop
      vertex 0.618034 -1.90211 0
      vertex 0.030902 -0.095106 -10
      vertex 0.045399 -0.089101 -10
    endloop
  endfacet
  facet normal 0.375998 -0.907739 -0.186105
    outer loop
      vertex 0.618034 -1.90211 0
      vertex 0.045399 -0.089101 -10
      vertex 0.907981 -1.78201 0
    endloop
  endfacet
  facet normal 0.513358 -0.837752 -0.186105
    outer loop
      vertex 0.907981 -1.78201 0
      vertex 0.045399 -0.089101 -10
      vertex 0.058779 -0.080902 -10
    endloop
  endfacet
  facet normal 0.51337 -0.837745 -0.186105
    outer loop
      vertex 0.907981 -1.78201 0
      vertex 0.058779 -0.080902 -10
      vertex 1.17557 -1.61803 0
    endloop
  endfacet
  facet normal 0.638106 -0.747118 -0.186105
    outer loop
      vertex 1.17557 -1.61803 0
      vertex 0.058779 -0.080902 -10
      vertex 0.070711 -0.070711 -10
    endloop
  endfacet
  facet normal 0.638101 -0.747122 -0.186105
    outer loop
      vertex 1.17557 -1.61803 0
      vertex 0.070711 -0.070711 -10
      vertex 1.41421 -1.41421 0
    endloop
  endfacet
  facet normal 0.747118 -0.638106 -0.186105
    outer loop
      vertex 1.41421 -1.41421 0
      vertex 0.070711 -0.070711 -10
      vertex 0.080902 -0.058779 -10
    endloop
  endfacet
  facet normal 0.747122 -0.638101 -0.186105
    outer loop
      vertex 1.41421 -1.41421 0
      vertex 0.080902 -0.058779 -10
      vertex 1.61803 -1.17557 0
    endloop
  endfacet
  facet normal 0.837752 -0.513358 -0.186105
    outer loop
      vertex 1.61803 -1.17557 0
      vertex 0.080902 -0.058779 -10
      vertex 0.089101 -0.045399 -10
    endloop
  endfacet
  facet normal 0.837745 -0.51337 -0.186105
    outer loop
      vertex 1.61803 -1.17557 0
      vertex 0.089101 -0.045399 -10
      vertex 1.78201 -0.907981 0
    endloop
  endfacet
  facet normal 0.907736 -0.376006 -0.186105
    outer loop
      vertex 1.78201 -0.907981 0
      vertex 0.089101 -0.045399 -10
      vertex 0.095106 -0.030902 -10
    endloop
  endfacet
  facet normal 0.907739 -0.375998 -0.186105
    outer loop
      vertex 1.78201 -0.907981 0
      vertex 0.095106 -0.030902 -10
      vertex 1.90211 -0.618034 0
    endloop
  endfacet
  facet normal 0.955388 -0.229346 -0.186105
    outer loop
      vertex 1.90211 -0.618034 0
      vertex 0.095106 -0.030902 -10
      vertex 0.098769 -0.015643 -10
    endloop
  endfacet
  facet normal 0.955382 -0.229368 -0.186105
    outer loop
      vertex 1.90211 -0.618034 0
      vertex 0.098769 -0.015643 -10
      vertex 1.97538 -0.312869 0
    endloop
  endfacet
  facet normal 0.979502 -0.0770803 -0.186105
    outer loop
      vertex 1.97538 -0.312869 0
      vertex 0.098769 -0.015643 -10
      vertex 0.1 0 -10
    endloop
  endfacet
  facet normal 0.979501 -0.0770874 -0.186105
    outer loop
      vertex 1.97538 -0.312869 0
      vertex 0.1 0 -10
      vertex 2 0 0
    endloop
  endfacet
  facet normal 0.979502 0.0770803 -0.186105
    outer loop
      vertex 0.1 0 -10
      vertex 0.098769 0.015643 -10
      vertex 2 0 0
    endloop
  endfacet
  facet normal 0.979501 0.0770874 -0.186105
    outer loop
      vertex 2 0 0
      vertex 0.098769 0.015643 -10
      vertex 1.97538 0.312869 0
    endloop
  endfacet
  facet normal 0.955388 0.229346 -0.186106
    outer loop
      vertex 0.098769 0.015643 -10
      vertex 0.095106 0.030902 -10
      vertex 1.97538 0.312869 0
    endloop
  endfacet
  facet normal 0.955382 0.229368 -0.186105
    outer loop
      vertex 1.97538 0.312869 0
      vertex 0.095106 0.030902 -10
      vertex 1.90211 0.618034 0
    endloop
  endfacet
  facet normal 0.907736 0.376006 -0.186105
    outer loop
      vertex 0.095106 0.030902 -10
      vertex 0.089101 0.045399 -10
      vertex 1.90211 0.618034 0
    endloop
  endfacet
  facet normal 0.907739 0.375998 -0.186105
    outer loop
      vertex 1.90211 0.618034 0
      vertex 0.089101 0.045399 -10
      vertex 1.78201 0.907981 0
    endloop
  endfacet
  facet normal 0.837752 0.513358 -0.186105
    outer loop
      vertex 0.089101 0.045399 -10
      vertex 0.080902 0.058779 -10
      vertex 1.78201 0.907981 0
    endloop
  endfacet
  facet normal 0.837745 0.51337 -0.186105
    outer loop
      vertex 1.78201 0.907981 0
      vertex 0.080902 0.058779 -10
      vertex 1.61803 1.17557 0
    endloop
  endfacet
  facet normal 0.747118 0.638106 -0.186105
    outer loop
      vertex 0.080902 0.058779 -10
      vertex 0.070711 0.070711 -10
      vertex 1.61803 1.17557 0
    endloop
  endfacet
  facet normal 0.747122 0.638101 -0.186105
    outer loop
      vertex 1.61803 1.17557 0
      vertex 0.070711 0.070711 -10
      vertex 1.41421 1.41421 0
    endloop
  endfacet
  facet normal 0.638106 0.747118 -0.186105
    outer loop
      vertex 0.070711 0.070711 -10
      vertex 0.058779 0.080902 -10
      vertex 1.41421 1.41421 0
    endloop
  endfacet
  facet normal 0.638101 0.747122 -0.186105
    outer loop
      vertex 1.41421 1.41421 0
      vertex 0.058779 0.080902 -10
      vertex 1.17557 1.61803 0
    endloop
  endfacet
  facet normal 0.513358 0.837752 -0.186105
    outer loop
      vertex 0.058779 0.080902 -10
      vertex 0.045399 0.089101 -10
      vertex 1.17557 1.61803 0
    endloop
  endfacet
  facet normal 0.51337 0.837745 -0.186105
    outer loop
      vertex 1.17557 1.61803 0
      vertex 0.045399 0.089101 -10
      vertex 0.907981 1.78201 0
    endloop
  endfacet
  facet normal 0.376006 0.907736 -0.186105
    outer loop
      vertex 0.045399 0.089101 -10
      vertex 0.030902 0.095106 -10
      vertex 0.907981 1.78201 0
    endloop
  endfacet
  facet normal 0.375998 0.907739 -0.186105
    outer loop
      vertex 0.907981 1.78201 0
      vertex 0.030902 0.095106 -10
      vertex 0.618034 1.90211 0
    endloop
  endfacet
  facet normal 0.229346 0.955388 -0.186105
    outer loop
      vertex 0.030902 0.095106 -10
      vertex 0.015643 0.098769 -10
      vertex 0.618034 1.90211 0
    endloop
  endfacet
  facet normal 0.229368 0.955382 -0.186105
    outer loop
      vertex 0.618034 1.90211 0
      vertex 0.015643 0.098769 -10
      vertex 0.312869 1.97538 0
    endloop
  endfacet
  facet normal 0.0770803 0.979502 -0.186105
    outer loop
      vertex 0.015643 0.098769 -10
      vertex 0 0.1 -10
      vertex 0.312869 1.97538 0
    endloop
  endfacet
  facet normal 0.0770874 0.979501 -0.186105
    outer loop
      vertex 0.312869 1.97538 0
      vertex 0 0.1 -10
      vertex 0 2 0
    endloop
  endfacet
  facet normal -0.0770803 0.979502 -0.186105
    outer loop
      vertex 0 0.1 -10
      vertex -0.015643 0.098769 -10
      vertex 0 2 0
    endloop
  endfacet
  facet normal -0.0770874 0.979501 -0.186105
    outer loop
      vertex -0.015643 0.098769 -10
      vertex -0.312869 1.97538 0
      vertex 0 2 0
    endloop
  endfacet
  facet normal -0.229346 0.955388 -0.186106
    outer loop
      vertex -0.030902 0.095106 -10
      vertex -0.312869 1.97538 0
      vertex -0.015643 0.098769 -10
    endloop
  endfacet
  facet normal -0.229368 0.955382 -0.186105
    outer loop
      vertex -0.030902 0.095106 -10
      vertex -0.618034 1.90211 0
      vertex -0.312869 1.97538 0
    endloop
  endfacet
  facet normal -0.376006 0.907736 -0.186105
    outer loop
      vertex -0.045399 0.089101 -10
      vertex -0.618034 1.90211 0
      vertex -0.030902 0.095106 -10
    endloop
  endfacet
  facet normal -0.375998 0.907739 -0.186105
    outer loop
      vertex -0.045399 0.089101 -10
      vertex -0.907981 1.78201 0
      vertex -0.618034 1.90211 0
    endloop
  endfacet
  facet normal -0.513358 0.837752 -0.186105
    outer loop
      vertex -0.058779 0.080902 -10
      vertex -0.907981 1.78201 0
      vertex -0.045399 0.089101 -10
    endloop
  endfacet
  facet normal -0.51337 0.837745 -0.186105
    outer loop
      vertex -0.058779 0.080902 -10
      vertex -1.17557 1.61803 0
      vertex -0.907981 1.78201 0
    endloop
  endfacet
  facet normal -0.638106 0.747118 -0.186105
    outer loop
      vertex -0.070711 0.070711 -10
      vertex -1.17557 1.61803 0
      vertex -0.058779 0.080902 -10
    endloop
  endfacet
  facet normal -0.638101 0.747122 -0.186105
    outer loop
      vertex -0.070711 0.070711 -10
      vertex -1.41421 1.41421 0
      vertex -1.17557 1.61803 0
    endloop
  endfacet
  facet normal -0.747118 0.638106 -0.186105
    outer loop
      vertex -0.080902 0.058779 -10
      vertex -1.41421 1.41421 0
      vertex -0.070711 0.070711 -10
    endloop
  endfacet
  facet normal -0.747122 0.638101 -0.186105
    outer loop
      vertex -0.080902 0.058779 -10
      vertex -1.61803 1.17557 0
      vertex -1.41421 1.41421 0
    endloop
  endfacet
  facet normal -0.837752 0.513358 -0.186105
    outer loop
      vertex -0.089101 0.045399 -10
      vertex -1.61803 1.17557 0
      vertex -0.080902 0.058779 -10
    endloop
  endfacet
  facet normal -0.837745 0.51337 -0.186105
    outer loop
      vertex -0.089101 0.045399 -10
      vertex -1.78201 0.907981 0
      vertex -1.61803 1.17557 0
    endloop
  endfacet
  facet normal -0.907736 0.376006 -0.186105
    outer loop
      vertex -0.095106 0.030902 -10
      vertex -1.78201 0.907981 0
      vertex -0.089101 0.045399 -10
    endloop
  endfacet
endsolid OpenSCAD_Model
